<svg id="Layer_1" xmlns="http://www.w3.org/2000/svg" width="616" height="394"><style>.st0{fill:#bae4fa}.st1{fill:#2075bc}.st2{fill:#6dcff6}.st3{fill:#2ba9e0}.st4{fill:#128ece}.st6{fill-rule:evenodd;clip-rule:evenodd;fill:#fff}</style><g id="IN"><path id="Path" class="st0" d="M439.7 195c-.9.9-1.9.3-2.9.7-.5.2-.6.6-1.1.8-.4.2-1 0-1.5.1-1.2.4-1.1.9-1.2 2.1-.2 1.1-.4 2.1-.7 3.2-1.5.6-2.1.8-2.2 2.6 0 .6.1 1.5-.2 2-.7 1.2-.8.3-1.7.4-.7.1-1 .6-1.5.6-.5-.1-1.4-1.1-1.8-1.4s-.8-.8-1.6-.7c-.7.2-1 .7-1 1.4h.5c.1.9-.2 1.7-.8 2.3-.6.6-1.4.9-2.3.9-1-.1-1.3-.6-2.3-.1-.5.2-.3.6-1 .7-.5.1-.9-.2-1.3-.3-1.6-.5-3.2-.5-4.8-.2-1.6.3-3 .1-3.4 2v.8c-.5-.9-.8-2-.5-3.1.2-.8.7-1.4.6-2.1-.1-.7-.7-.8-.5-1.8.2-.6.9-1.2 1.2-1.9.3-.6.3-1.3.7-2 .7-1.2 1.2-2.6 1.2-4 .8-.1.5-.4.6-.9 0-.1.1-1.7.1-1.7-.3-.9-1.3-1.1-1.6-2-.4-1.3.2-1.2.5-2.4.6-2.5-.2-5.9-.4-8.5-.8-8.7-1.9-21-2.8-30.2.3.9.6 1.8 1.2 2.5 1.7 2 4.5 1.1 6.4-.1.5-.3 1-.7 1.4-1.1.2-.2.6-.3.8-.5 5.2-.5 16.6-1.5 19.4-2v1.1h.2l5.6 39.1c-.5.2-.8.5-1.1.9-.2 1.3.9 1.7-.2 2.8z"/></g><g id="SC"><path id="Path_1_" class="st1" d="M519.4 253c-1 .9-1.9 1.8-2.5 3-.6 1.3-1 2.5-1.6 3.7s-1 3.6-2.6 4.2c-.1-.4-.3-.8-.6-1.2-1.5.7-.2 2.9 0 4-1.5.1-2.4-.4-2.9 1.4-.3 1.2-.5 2.5-2 3.2-.4-.5-.9-1.1-1.6-.9-1 .3-.5.8-.4 1.5 0 1.1-1.4 2.1-2.7 2.1-.1-.3-.1-.6-.1-.9-.2.6-.3 1.6-.9 2.1-.5.4-1.6 0-1.9.8-.4.8 1.1 1.3.6 2.1s-1.8-.1-1.9-.9c-1 .7.9 1.8.7 2.8-.6.2-.3 1-.5 1.5s-.8.8-1.1 1.3c-.4-.4-.7-.5-1.2-.8-.3-.1-.6-.3-.8-.5-.5-.6-1.2-1.1-1.9-1.3-.8-.3-.7-.8-.7-1.5-.2-.4-.3-.6-.3-.9-.3-.3-.7-.4-.9-.7-.1-.4-.3-.7-.5-.9-.1-.4-.6-.4-.9-.7-.3-.3-.3-1-.6-1.5-.1-.3-.4-.6-.4-.9-.1-.4-.2-.7-.3-1.1-.3-.5-.5-1.5-.9-1.7-.7-.3-1.2-.5-1.8-1-.5-.4-1.3-1-1.9-1.3-2-.8-2.1-2-3.7-3.2-.9-.7-1.7-1.3-2.5-1.9-.9-.6-1.2-1.3-2-1.8-1.6-1-1.9-.7-2.4-2.5-.4-1.4-1.6-1.6-2.2-2.9-.3-.7-.7-1.3-1.2-1.7-.4-.1-.6 0-1-.4-.2-.4-.4-.7-.7-.9-.7-.3-1.2 0-1.9-.1-1.1-.3-1.4-1.5-1.7-2.3-.2-.6 0-1.5.4-1.9.1-.4.1-.7.3-1.2.2-.6.6-1.2 1-1.7.5-1.1 1.2-1.4 2.2-1.6.3 0 .7-.1 1-.2.3 0 .7-.3 1-.4.7-.3.8.1 1.5-.3s1.1-.8 1.8-1c.6-.1 1.1-.2 1.8-.1.6 0 1-.2 1.6-.6l10.2-.7c.3.5.3 1.1.9 1.3.5.1.6.1 1 .1l2.1 2.8 12.3-2v-.3l15.3 10.5z"/></g><g id="LA"><path id="Path_3_" class="st2" d="M398.5 328.8c-.4.6-1.1.9-.9 1.8.8.6 1.6 1.2 2.3 1.9.5.4 1.9 1.8.2 1.5-.9-.1-1.4-1.7-2.2-2.1-1-.7-1.7.3-2.9.4-.1-.6.5-2.5-.7-2.3-.9.1-1.1 2.1-1.2 2.8 0 .5-.1 1-.4 1.4-.5.6-.8.2-1.3.5s-1.1 2.3-1.8 1c-.2-.4.4-.8 0-1.1-.2-.2-1.4.3-1.7.4-.7.1-2-.5-2.7-.1-1.1.7-.3 2-2.1 1.1-.8-.4-1.6-.7-2.5-.9-1.1 0-2.1-.3-3.1-.8-1.6-1-.2-1.4.8-2.3-1.1-1.1-3-1.3-4.7-1.4-.1-.3 0-.7.1-1-1.2-.5-2.4.6-3.6.2-.6-.2-.6-.7-1.4-.6-.5.1-.9.6-1.4.7-.9.3-1.1 0-2-.4-.7-.2-1.5-.2-2.2 0-1.3.1-2.6.1-3.9-.2-.7-.1-1.3-.2-1.9-.5-.6-.2-.9-.9-1.4-1.1-.9-.4-3 .5-4 .6-1.7.3-3.3.4-4.9.7 0-.1.1-.1.1-.2.1-.2.3-.4.4-.5.1-.2.1-.2.2-.3l.3-.3c.2-.4.3-.9.2-1.4v-.6c0-.3.3-.4.5-.7.2-.4.3-.9.3-1.4s-.5-.9-.8-1.4c-.3-.4-.5-.9-.5-1.4s.7-.8.8-1.3c0-.5 0-1-.2-1.4-.1-.5-.1-1.1.1-1.6.1-.3.2-.5.3-.8.2-.2.3-.5.4-.8.1-.5.1-1 .1-1.5 0-.3.3-.4.4-.6s.1-.5 0-.8c-.1-.5-.3-1-.6-1.4-.1-.2-.2-.5-.3-.7v-.8c.2-.7.3-1.5.2-2.3-.1-.5-.3-1-.6-1.4-.3-.4-.7-.8-.9-1.2-.1-.2-.3-.5-.4-.7s-.3-.4-.4-.6c-.2-.4-.3-.8-.4-1.2-.1-.4 0-.9-.2-1.1-.4-.5-.7-.6-.8-1.4-.1-.8-.2-.6-.6-1-.6-.6-1-1.3-1.1-2.2l-.4-12.8 33.6-1.4.3.9c.3.3 1.1-.4 1.2.4 0 .4-.9 1-1 1.3-.1.9-.1 1.9.2 2.8.6.9 1.5-.2 2 .2s-.3 1.7-.5 2.1c-.2.3-.3.7-.3 1.1.1.5.4.5.5.8.2.6 0 1.3-.4 1.8-.2.3-.6.4-.7.7-.2.5 0 .6 0 1.1 0 .9-.3.7-1 1.1-.7.5-.4 1.2-.9 1.7s-1.2.1-1.3 1v.7c.9-.1.8.3.4.7-.4.4-1.5.6-1.3 1.4.1.8 1 .4.5 1.1s-1.4.3-.8 1.5c.3.6.9.6.2 1.3-.9.9-1.4.8-1.1 2.2.2.9.3 1.9.4 2.8.8.1 1.6 0 2.3-.2l7.9-.5 6.1-.4c1.3-.1 3.2-.4 4.5-.1 1.2.3.5 1.7.1 2.7-.3.6-.5 1.2-.4 1.9.2.5.6.7.8 1.1.2.5.1.9.6 1.3s1 .6 1.4.9c.6.5 1.1 1.2 1.2 1.9 0 .3-.1.7 0 .9s.5.4.8.5c.6.3 1.1.6 1.5 1.1-.1.5-.4.9-.8 1.3.5.7 2 .5 2.4 1.1.6.9-.9 1.6-1.5 2.1-.9 1.3-1 1.9-1.5 2.7z"/></g><g id="MT"><path id="Path_4_" class="st2" d="M243.6 54.7l-3 42.9-.9 13.4-69.2-7.1-.8 5.1c-.7-.1-2.9-.6-3.5-.6-1.1-.2-2.3-.1-3.3.4-2.1.8-4.1-.1-6.3.1-2.3.2-3.3.1-5.2-1.4-.8-.8-1.4-1.6-1.9-2.6-.6-.7-1.3-1.3-2.2-1.6-1.5-.9-.9-2.3-.7-3.7.2-1.3 0-2.6-.5-3.8-.3-.9-.4-1.8-.4-2.8-.1-2.2-1.1-4.1-3.2-2.3-1 .8-1.1 1.2-2.2.4-.8-.6-1.5-1.3-2.2-2s-1.1-1.6-1.1-2.6c.1-1 .5-1.9 1.3-2.5.7-.6 1.6-.8 2-1.7s.1-1.9.2-3c.1-.9.8-1.7.7-2.7-.2-1.9-3.7-1.6-5-2.6-1.4-1.2-2.5-2.8-3.2-4.6-.8-1.9-1.8-3.5-1.6-5.6.1-1.2.6-1.3 1.2-2.2.8-1.2.2-1.2-.2-2.3-.1-.5.1-1.2-.1-1.6-.2-.4-.8-.6-.9-.8-.6-1.2.4-3.7.6-5.1l.9-4.8 1.2-6.4c36.2 6.8 72.7 11.5 109.5 14.1z"/></g><g id="WV"><path id="Path_5_" class="st2" d="M505.8 173.2c-.2 1-.3.9-.2 1.8V176.7c0 .3-.1.6-.2.9 0 .1-.1.2-.1.3 0 .1-.1.2-.1.2 0 .1 0 .1-.1.2v.1s-.1.3-.1.4V179.1l-.1.2c-.3.3-.6.7-.9 1.1-.2.4-.3.8-.5 1.2v1c0 .1-.1.2-.1.3s-.1.2-.2.2c-.1.1-.2.1-.3.1h-.4l-.2.1h-.1l-.2.1-.1.1c-.1.1-.1.2-.2.3l-.1.3-.1.3-.1.3c0 .1-.1.2-.1.3 0 .1-.1.2-.1.3l-.2.6c-.2.5-.4.9-.7 1.3l-.2.3-.1.1c-.1.2-.3.4-.5.6-.1.1-.1.2-.2.3-.1.3-.3.5-.5.7l-.1.1-.1.1-.2.2-.1.1h-.4v-.1c-.3.1 0 1.1 0 1.1l-1.1-.2h-.8c-.1 0-.1-.1-.2 0l-.3.3-.2-.2c-.3.4-.6.5-.7.9 0 .1-.3.4-.3.6-.1.5-.2.7-.3 1.1-.1.2-.1.3-.1.5v.1s0 .1-.1.1c0 0 .2.2.1.2-.1.3 0 .3-.1.6 0 0-.6 1.2-.6 1.5v.2c0 .1 0 .2-.1.2l-.1.2v.3c-.1.1 0 .8-.1.8l-.5.5s-.7.1-.7.2-.4.9-.4.9c-.2.8-.9 2.6-.9 2.6l-.1.5c-.4.7-1.4 3.1-1.4 3.1l-.6 1.1s-1.6 1.8-1.9 2.1l-2.9 1.3s-.6.4-.7.5c0 0-.8.6-1 .8l-2 1.2c-.4.1-3.6.4-3.6.4l-.9.3c-.4.1-1.5.5-1.8.2-.2-.2-1.8-2.7-2-2.7-.3 0-.3-1-.5-.9v-.5c-.2-.9-1.3-1.2-1.9-1.9-1.2-1.3-2.8-3-3.6-4.5-.8-1.7-1.7-3.1-2-4.9 0-.2-.3-1.2-.3-1.3l-.1-.4c.6-.2 2.1 0 2.5-.3s.3-1.2.8-1.6c.4-.1.6-.3 1-.7.2-.2.2 0 .3-.3.1-.7-.6-1.3-.7-1.8-.3-.8-.2-1.3.1-1.9.3-.7.3-2 1-2.6.7-.5.9.1 1.5.4.4.1.7.2 1.1 0 .4-.4.2-1.6.2-2-.1-.7.3-1.5.9-1.7.4-.5 1-1 1.6-1.3.5-.7 1.6-.8 2.3-1.3.3-.3.3-.7.5-1 .1-.4.4-.5.5-.9s0-.9.4-1.1c0-.3.9-.6 1.1-.8.3-.5.7-.9 1.2-1.2.4-.2.2.2.6-.1.1-.4.2-.8.1-1.2 0-.8-.5-1.5-.5-2.3-.1-.9.1-2.2.4-3 0-.6.6-1.3.6-1.9.3-1.1.2-2.2-.3-3.2-.1-.3-.2-.5-.4-.7.3-.4.1-1.1.3-1.5.1-.4.9-.5 1.1-.9.1 0 .4.2.6.2l2 12.8 9.6-1.9c0 .4.3 1.1.3 1.5.1.7.2 1.2.3 2s.1 1.7.3 2.5c.1.6-.1 1.1 0 1.8.1-.1.5-.1.5-.3.4-.3.7-.7.9-1.1.2-.5.1-1.1.4-1.5.7-1.1 1.8 0 2.4-1 .3-.5.4-1.1.9-1.6.4-.4 1.2-.8 1.7-1 .9-.7 1.8-.9 2.9-.9l.6.1.5.1H506.1v-.1h-.3z"/></g><g id="NJ"><path id="Path_6_" class="st3" d="M548.1 158c.2 1 .3 2.1.3 3.1s-.4 1.9-.9 2.6c-.5 1.1-.7 2.2-.6 3.4 0 1-.4 1.9-1 2.7-.5.7-.9 1.5-1.1 2.4-.1.5-.5 2.5-1.3 1.6-.6-.7.6-5.6-1.3-4.1-.3.2-.7.8-1.1.8-.4 0-.6-.4-.8-.7-.7-.8-1.5-.5-2.3-1-.2-.1-.7-.8-1.1-1.2-.2-.5-.5-.6-.5-1.1v-.7c0-.5-.7-.9-.7-1.5 0-.3.2-.6.4-.9.1-.2.3-.3.5-.5.4-.3.7-.6 1-.9.2-.3.5-.7.8-1s.9-.6 1.1-1c.1-.2 0-.5.1-.7s.3-.4.4-.6c.2-.5.1-1-.2-1.5-.4-.8-.2-2-.7-2.8-1.2-.1-1.1-1.3-1.7-2-.3-.4-.8-.4-1.1-.9-.2-.4-.3-1-.3-1.5.1-1.1 0-2.2-.2-3.3-.1-.7-.1-.8.3-1.4.3-.4.5-.9.7-1.4.2-.4.5-.5.7-.8s.1-.8.2-1.3c.2-.6.6-1.1 1-1.6 0 0 0 .1.1.1.2.3.3.3.6.3.6 0 1.2.1 1.7.3l.9.2c.3.2.6.3.9.4.6.2 1.3.4 1.9.6 1 .3 2.5.2 3 1.3.3.8.9 1.4.6 2.2-.2.4-.5.8-.4 1.3.1.3.5.9.5 1.2.1.4-.2.8-.2 1.3-.7-.4-1.5-.4-1.9.5-.5 1.1-.1 1.5.9 2 1.2.7 1.5 1.4 1 2.6-.5 1.3-.6 2.4-.2 3.5z"/></g><g id="VT"><path id="Path_7_" class="st2" d="M557.2 86.3c-.2.4-.2.9 0 1.3.1.2.2.4.2.7v.7c-.2 1.5-.8 3-1.8 4.1-.3.4-.9.4-1.2.9s0 1.3.1 1.9.4 1 .5 1.5c0 1-.1 2-.5 3-.1.6.2.9.4 1.5 0 .6-.1 1.2-.3 1.8-.1.5-.4 1-.3 1.5.2.5.7.6.7 1.3 0 .5-.4.9-.4 1.5 0 .5.4 1.1.5 1.7.2 1.2-.7 2-.4 3.2s1.1 2 1.2 3v1.1c-3.4.8-6.6 1.4-7.9 1.7-.1-.3-.2-.7-.2-1s0-.7-.1-1c-.1-.7.1-1.5-.1-2.2-.1-.7-.3-1.4-.6-2.1-.1-.3-.3-.7-.3-1.1-.1-.1 0-.3-.1-.5s-.2-.4-.3-.5c-.3-.7-.7-1.3-.9-1.9-.3-.7-.7-1.3-1.2-2-.2-.4-.2-.8-.2-1.2v-1.1-1.2c0-.4 0-.8-.1-1.1-.3-1.3-.9-2.7-.4-4.2.1-.3.2-.7.2-1s0-.6.1-.9c.1-.2.2-.3.3-.5s.1-.3.1-.5c0-.3-.1-.6-.3-.9-.2-.4-.4-.7-.6-1.1-.1-.3-.1-.6-.1-.9 0-.5-.2-1-.4-1.5-.2-.7-.3-1.3-.3-2-.1-.6-.1-1.2-.2-1.8l2.5-.6c2.6-.6 5.2-1.1 7.8-1.7 1.4-.2 2.8-.5 4.1-1h.1v.5c.1.5.5.7.7 1.2.1.2.1.5 0 .7s-.2.5-.3.7z"/></g><g id="IL"><path id="Path_8_" class="st2" d="M410.2 197c-.1.5.3.9-.5 1 0 1.4-.5 2.8-1.2 4-.3.7-.4 1.3-.7 2-.3.7-1 1.3-1.2 1.9-.3 1 .3.9.5 1.8.1.8-.4 1.3-.6 2.1-.3 1-.1 2.1.4 3.1 0 .4-.1.8-.3 1.1-.4.6-1.2.5-1.2 1.3 0 .7.5 1.2.7 1.9-.1 1.7-3.3 0-3.3 1.3 0 .4.5.7.7 1.1.1.4-.1.7-.1.9-.4 1.2-.7 2.2-2 1.9-1-.3-2-.4-3.1-.4-1.2.1-1.6 1.1-2.3 2-.3.5-.9 1.1-1.4 1.4-.2-.3-.4-.6-.7-.6-.9-.2-1 0-1.4-.9s-.9-.9-1.3-1.5c-.7-.9-.2-3-.4-4.2 0-.7-.2-1.3-.5-1.9-.5-.6-1.2-1-1.5-1.7-.2-.5-.1-1.4-.6-1.8-.5-.3-1.2.4-1.9.1-1.1-.4-2.5-2.2-3.3-3.1s-2.4-1-2.2-2.7c.1-.4.3-.7.4-1s.4-.9.4-1.2c.1-.6.3-1.3.6-1.9.7-1.3.7-2.6 0-3.9-.2-.6-.8-1.3-1.4-1.4s-1.1.1-1.4.6c-.6.7-1.1 1.1-1.9.4-.5-.5-.8-1.2-.9-1.9-.2-1.2-.5-2.8-1.4-3.7-.4-.4-.8-.4-1.4-.8-.5-.4-1-.8-1.3-1.4-.8-1.1-1.7-1.3-2.7-2.4-.9-.9-1.7-2.3-2-3.6-.2-1.2-1-2.4-.9-3.7.2-.7.3-1.9.3-2.6-.1-.7-.2-.7-.2-1.3 0-.1-.2-.4-.2-.4.6-1.1 1.7-2.4 2.6-3.1 1.3-1.1 2-.7 1.9-2.7-.1-1.5.9-2.7-.7-3.8.4-2.4 1.8-4 4-4.7 1-.3 1.5-1.1 2.4-1.5 1.1-.5 1.1-1.1 1.6-2.2.3-.5.2-.9.3-1.5 0-.7.3-1.7.1-2.4.1-.7.2-1.1.1-1.8-.2-.6-1-.9-1.5-1.4-.3-.6-.6-1.2-.8-1.8-.4-.6-1-.8-1.5-1.2-.4-.4-.6-.6-.8-1.1l29.1-3.4c-.1 1.5.2 3 .8 4.3.5 1 1 1.9 1.5 2.9l.2.6c.9 9.3 2.1 21.4 2.9 30.1.2 2.6 1 6.1.4 8.6-.3 1.2-.9 1.3-.5 2.6.3.9 1.3 1.1 1.6 2-.2.3-.3 1.6-.3 1.6z"/></g><g id="MN"><path id="Path_9_" class="st2" d="M377.3 70.1c-2.5 2-5.9 2.4-8.2 4.8-1 1-1.8 2.2-2.8 3.2s-2 1.7-3 2.6c-2.1 1.8-4.1 3.8-6.1 5.7-1 .9-.9 1.4-.4 1.6h-.5c-2.3 0-1.6 2.4-1.5 3.8s.1 2.8.2 4.2c0 1.4.3 2-.9 2.9-1.7 1.1-3.5 2.7-3.7 4.9-.1.6-.3 1.4 0 2s1.1.6 1.5 1.1c.5.8.2 1.2-.2 1.8-.4.6-.6 1.2-.6 1.9-.1 1.4-.2 2.9-.4 4.4-.2.7-.1 1.4.1 2 .3.5 1.3.8 1.7 1.2.6.6.8.9 1.7 1.1.7.1 1.3.2 2 .4.6.2 1.2.4 1.9.5.7 0 1.3-.3 1.9.3.4.5.7 1.1 1.1 1.6.4.6.8 1.1 1.2 1.7.4.6.9 1.1 1.5 1.4.8.5.6.8 1.1 1.5.7 1.2 2.3 1.3 3.1 2.3.3.6.5 1.3.6 1.9.1.4.3.4.2.8-.1.4-.5.5-.7.9-.1.4-.1.9 0 1.4v.3c-8.1 1.4-42 1.4-51.5 1.4l-.2-25.3c-1.1-1-2-2.1-2.8-3.3-.5-.8-.7-1.7-.5-2.7.1-1.3.8-2.4 1.1-3.6.2-.8.1-1.6-.2-2.3l-1.1-2.1c-.2-.3-.3-.7-.4-1.1-.2-.3-.2-.7-.1-1 0-.4 0-.8-.1-1.2s-.4-.7-.6-1.2c-.2-.7-.2-1.4 0-2.1.1-.5.4-.7.4-1.2s-.2-.6-.2-1c-.1-.6.2-1.2.1-1.8-.3-.9-.8-1.6-.4-2.7.2-.4.3-.8.4-1.2.2-.4.3-.8.4-1.2 0-.4-.1-.9-.4-1.2-.1-.2-.2-.4-.4-.6-.2-.2-.2-.4-.4-.5-.3-.3-.6-.7-.8-1.1-.1-.5.1-.9-.1-1.2-.2-.3-.7-.8-.9-1.2-.1-.4-.2-.8-.2-1.2-.2-.9-.2-1.9-.1-2.9.1-.8.1-1.6.1-2.4-.1-.3-.2-.6-.4-.9 0-.1-.1-.1-.2-.2-.1-.2-.2-.3-.3-.5-.1-.3-.3-1.4 0-1.6 0-.5.1-1 .1-1.4.3-.4.3-1.1.5-1.5.1-.4.1-.9-.2-1.2-.2-.4-.3-.8-.4-1.2-.2-.4-.3-.5-.4-.8v-.7c0-.4-.1-.8-.3-1.2 3.4 0 6.9 0 10.4-.1h6.3c.8 0 1.2-.1 1.3.8.1.6-.1 1.8.9 1.2.7-.4.8-1.4 1.6-1.7.9-.4 1.9-.7 2.4.4.4.8.1 1.7 1.1 1.9.7.2 1.8-.3 2.5.4s1.3.1 2.2.2c.9.1 1.5 1.1 2.3 1.5.7.3 1.2.9 1.4 1.6.5.1.8-.5 1.2-.7.8-.5 1.7-.8 2.6-.9 1-.1 1.6.5 2.5.8.6.2 1.3-.1 1.9.3.6.4.7.8 1.4 1 .7.2 1.1.1 1.6.6s.5 1.2.9 1.7c.6.6.8.2 1.4 0 1.1-.4 2.5.9 3.5 1.5.5.4 1 .7 1.5 1 .6.2 1.3.2 1.9.4.7.3.8.6 1.5 0 .4-.4.5-.9.9-1.2.5-.6 1.1-.2 1.8-.3.7-.2.9-.7 1.7-.5.8.2.9.5 1.7-.1.4-.2.3-.4.7-.3.5.1.6.5 1 .6 1 .2 1.2-.6 2.3.1 1.1.7 1.2.3 2.2.4.7 0 1.3.6 2 .9.7.2 2.2.5 1.1 1.4z"/></g><g id="UT_1_"><path id="Path_10_" class="st2" d="M183.1 162.1l-7.2 57c-18.3-2.2-36.8-5-54.1-8.5l11.8-69.9c9.9 1.5 20.4 2.8 30.9 3.8l-2.1 14.7c.1 0 8.5 1.2 20.7 2.9z"/></g><g id="TN"><path id="Path_11_" class="st2" d="M474.7 227.9c-.6.3-.3.6-.6 1.1-.3.4-.9.5-1.3.7s-.8.6-1 1c-.2.3-.5.7-.7.9-.2.1-.3.2-.5.3l-.2.1-.2.1c-.1 0-.1.1-.2.1h-.1l-.2.1c-.2.1-.5 0-.7-.1l-.1-.1c0-.1-.1-.2-.1-.2V231.6v-.5-.2-.5c0-.2 0-.3-.1-.4h-.4c-.3.1-.6.3-.8.6l-.2.2-.1.1c-.1.2-.2.3-.3.5-.1.2-.1.3-.2.5-.2.5-.4 1-.5 1.6 0 .1-.1.3-.1.4s-.1.2-.1.3-.1.2-.1.2l-.3.3c-.2.2-.5.4-.7.4-.3.1-.7.2-1 .3l-.2.1-.2.1-.2.1c-.1 0-.2.1-.2.1-.3.2-.6.5-.8.8l-.1.1c-.1.2-.1.3-.2.4l-.1.1-.2.1-.1.1c-.1 0-.1.1-.2.1-.3.2-.7.4-1.1.3-.3 0-.7.1-1 .2h-.6c-.2 0-.5.1-.7.1-.3.1-.7.3-.9.5-.3.2-.6.5-.9.9-.2.3-.4.5-.5.8l-.1.3c-.3.5-.6 1.1-1 1.6l-.1.1-.1.1c-.5.5-1.3.6-1.6 1.5v.2c0 .3.1.5.1.8s-.2.5-.4.7l-.1.2c-.1.1-.1.1-.1.2v2c-4.5.6-9.5 1.2-14.6 1.8-9.7 1-20 1.9-29 2.6-11.9 1-21.3 1.1-23.8 1.2l.2-.1c.5-.6 1-.3 1.5-.8s.4-1 .3-1.8c-.1-.7-.2-1.4-.2-2.1 0-.9.4-.9.9-1.5s.3-1.4.4-2.3c.1-.6.4-1.2.9-1.6 1-1.2 1.5-2.4 1.9-3.9 0-.2.1-.4.1-.7-.1-1.4-.1-2.9 0-4.3.1-.6 0-1 .4-1.5.1-.1.2-.4.2-.5l.1-.1c0-.1.3-.5.4-.5 3.9 0 17.4-.3 17.4-.3l.2-3.5c1.3 0 1.9 0 3.4-.1h3.4c1.2-.1 2.4-.1 3.7-.2l1.6-.1.8-.1 30.2-3c3.5-.4 21.1-2.9 21.1-2.9l.9 6.2z"/></g><g id="Layer_121"><path id="Path_12_" class="st2" d="M455.8 240.3c.2-.3.3-.5.5-.8-.1.3-.3.5-.5.8z"/></g><g id="Layer_120"><path id="Path_13_" class="st2" d="M461.8 237.2h.1z"/></g><g id="Layer_119"><path id="Path_14_" class="st2" d="M468.8 231.3v0z"/></g><g id="Layer_118"><path id="Path_15_" class="st2" d="M470 232.2l.2-.1-.2.1c-.1 0-.1.1-.2.1.1-.1.2-.1.2-.1z"/></g><g id="NM"><path id="Path_16_" class="st0" d="M242.8 224.7l-.5 7.7-3.6 61.8-43.3-2.6v.1c0 .1.1.2.1.3v.1s0 .1.1.1c0 .1.1.1.1.2.1 0 .1.1.2.1l.2.1c.1.1.3.2.3.4v.1l-20.6-2.2v.1l-.4 7-9.5-.9 10-78.1c23.1 2.3 45.9 4.5 66.9 5.7z"/></g><g id="MA"><path id="Path_17_" class="st0" d="M581.6 125.3c-.2.8-.7 1.5-1.5 1.9-1 .5-1.5-.5-1.8-1.3-.5-1-.6-1.3-1.3-.3-.5.6-1.3 1.2-1.5 2-.1.4-.1.7-.2 1.1-2.1-1.5-3.7-3.6-4.6-6-1.7.2-3.3.5-4.9.9-6.2 1.3-16 3.7-18 4.1 0-.2 0-.4.1-.6v-1c0-.7.3-1.4.3-2.1.1-1.8.1-3.6-.1-5.4 1.3-.3 4.5-.9 7.9-1.7 4.4-1 9.2-2.1 11.1-2.7.5 0 1-.4 1.2-.7.5-.6 1.2-1.2 1.8-1.8.5-.6 1-1.2 1.6-1.7.4-.2 1.1-.8 1.6-1.2-.1.5-.2 1-.2 1.6.1.9.3 1.7 1.2 2 .7.3 1.6.4.7 1.1s-1.4.7-1.7 1.8c-.1.6-.7 1.8-.2 2.4.5.5 1.8.3 2.5.8s.8 1.6 1.2 2.3c.5.7 1.3.7 1.9 1.3.6.6.7 1.4 1.5 1.8.9.2 1.6.4 1.4 1.4z"/></g><g id="PA"><path id="Path_18_" class="st0" d="M540.1 158.9c-.1.2-.4.4-.5.6-.1.2 0 .5-.1.7-.2.4-.7.7-1.1 1-.3.3-.6.6-.8.9-.3.3-.6.7-1 .9l-.5.5c-.1-.1-.2-.1-.3-.1-.5-.2-.9-.2-1.4-.3-.4-.1-.9-.1-1.3.1-.5.3-.9.5-1.4.7-.3.1-.5.1-.6.4-.1.3-.1.4-.1.6-.2.2-.4.4-.6.5-.2.2-.3.4-.4.6l-36.4 6.6-9.9 1.8-2-12.8-3.6-20.7c.6-.2 1.2-.2 1.8-.4.9-.3 1.2-1 1.7-1.8.5-.6 1-1.1 1.7-1.5.4-.3.9-.5 1.4-.6l.8 5.7s34.9-7.4 43.6-9.6c.1 0 .2.1.3.1.3.1.7 0 1 .2s.6.4.9.7l.9.3c.5.1 1 .2 1 .8-.1.7 0 1.3.2 1.9.2.3.4.6.7.8.1.2.1.3.3.3.3.1.3 0 .5 0 .4 0 .7.1 1 .3s.4.7.8.9c.4.2 1.5.1 1.8.7.1.3.1.6.3.8-.4.5-.8 1-1 1.6-.1.5 0 .9-.2 1.3s-.5.4-.7.8c-.1.5-.4 1-.7 1.4-.5.6-.5.6-.3 1.4.2 1.1.3 2.2.2 3.3 0 .5.1.8.3 1.3.7.5.8.5 1.1.9.6.7.4 1.7 1.6 1.9.5.8.4 2.3.8 3.1.3.4.4.9.2 1.4z"/></g><g id="GA"><path id="Path_19_" class="st3" d="M497.4 282.8l-.1.1c-.2.2-.5.2-.7.4s-.1.5-.2.7c-.4.6-.6.6-1.4.7-.6.1-1.1-.4-1.5.4s.2.7.5 1.2c.3 1-.2 2-1 2.6 0 .5.4.8.4 1.3-.6.2-1.5.7-1.4 1.5s1 .9.9 1.9-.8 1.2-1.4 1.9c-.4.4-.9.4-.1.9.4.2.9.2 1.3.2-.5 1-.6 2.2-.3 3.3.1.2.1.4.2.5-.5.5-1 1-1.5 1.4-.7.7-1.6.1-2.4-.1-.4-.2-.8-.3-1.2-.1-.4.2-.7.5-.8.9-.1.8-.1 1.6 0 2.4-.1.9-.4 1.9-1.5 1.6s-.9-1.2-1.7-1.3c-.4-.1-.9-.1-1.3 0l-30 2.4h-.7c.1-.1.2-.1.3-.2.3-.1.7-.2 1-.2h-.4c-1 0-2.1-2.1-2.3-3.3-.1-.3-.3-.3-.3-.6 0-.7.1-.7-.3-1.2-.5-.4-1-1.3-.7-2 0-.3.1-.8.1-.9-.1-.4-.3-.6-.3-1-.1-.7 0-.8-.2-1.3-.3-.6-.5-1.2-.7-1.8-.1-.6.1-1.5.4-2 .3-.6.3-1.1.3-1.8s.2-1.3.1-2c-.2-.6-.3-1.1-.3-1.7.1-.9 1.2-2.8.4-3.7-.4-.3-.8-.1-.9-.7 0-.3.3-.7.1-.9-.1-.8-.4-.3-.9-.5-1.7-.5-1.8-1.7-1.5-2.7l-7.5-29.4c5.1-.6 10.3-1.2 14.8-1.9 5.5-.8 10.4-1.6 14.1-2.4-.4.5-.8 1.1-1 1.7-.1.5-.1.8-.3 1.2-.4.5-.5 1.2-.3 1.7.3.8.5 2.1 1.6 2.4.7.1 1.2-.1 1.9.1.3.2.6.6.8.9.4.4.5.1.9.3.6.5 1 1.1 1.3 1.7.6 1.3 1.8 1.6 2.2 3 .5 1.8.6 1.4 2.2 2.4.8.5 1.3 1.3 2 1.8s1.7 1.2 2.6 1.9c1.5 1.2 2 2.6 4 3.4.6.3 1.1.6 1.6 1.1.6.5 1.2.9 1.9 1.2.4.3.7 1.2.9 1.7.1.4.2.7.3 1.1 0 .3.3.5.4.8.3.5.3 1.2.7 1.6.4.4.7.3.8.7.3.3.4.6.5.9.3.3.7.4.9.7l.3.9c.1.7-.1 1.2.7 1.5.7.2 1.4.6 1.9 1.2.2.2.4.4.7.5.2.2.7.6 1.1 1z"/></g><g id="IA"><path id="Path_20_" class="st0" d="M379 157.7c-.2.6-.4 1.2-.7 1.7-.5 1.1-.4 1.8-1.6 2.2-1 .4-1.4 1.2-2.4 1.5-2.2.6-3.5 1.8-3.9 4.2 1.6 1.1.6 2.2.7 3.8.1 1.9-.7 2.1-2 3.2-1 .7-1.8 1.6-2.3 2.7l-.2-.1c-.3-.1-.5-.3-.8-.4-.2-.1-.3-.2-.4-.4-.2-.2-.4-.4-.6-.5-.2-.2-.3-.3-.3-.4l-41.2 1.3v-.1c-.1-.9-.6-1.7-1.4-2.3-1.1-.9-.5-1.3-.6-2.6-.1-.5-.2-.9-.4-1.3-.3-1 .3-2-.3-3-.3-.4-.8-.8-.9-1.3 0-.6 0-1.1.1-1.7 0-1.3-.7-1.5-1.6-2.3.2-.8.3-1.7.1-2.5.1-.8-.4-1.6-1.1-2-.1-.5.1-.9 0-1.4s-.3-.4-.6-.8c-.7-.7.2-1.2 0-2s-.9-1.1-1.1-1.9c-.1-.6-.2-1.2-.3-1.9-.1-.5-.4-1-.6-1.4-.1-.2-.2-.4-.2-.7h-.1c0-.1-.1-.5-.1-.6-.3-.6 0-1 .1-1.7.1-.3.2-.7.2-1v-1c0-.4-.2-.7-.3-1.1 0-.3 0-.6.1-.9 0-.4.1-.7.3-1.1.2-.3.3-.6.3-.9-.1-.4-.4-.6-.6-.9s-.3-.7-.2-1c.1-.4.4-.5.3-.9 0-.3-.1-.5-.1-.8h2.4c9.5 0 43.4 0 51.5-1.4 0 .9.3 1.8.7 2.7.4.6.6 1.3.6 2 0 .8-.6.8-.9 1.5-.7 1.4 1 2.5 1.4 3.6.2.6.1 1.4.8 1.8s1.4.2 2 .4c.7.2 1.3.7 1.5 1.4.2.5.5 1 .9 1.4.5.4 1.1.6 1.5 1.2.2.6.5 1.2.8 1.8.4.5 1.2.8 1.5 1.4.1.7.1 1.5 0 2.2-.1.8 0 1.6 0 2.3z"/></g><g id="UT"><path id="Shape_1_" class="st0" d="M104.1 135.7c-11.1-2.2-21.4-4.5-30.6-6.7l-9.3 37.5-1.2 3.7 48.3 67.2v-.6c-.1-.3-.2-.6-.2-.9 0-.4.2-.6.2-.9 0-.3-.2-.6-.2-.9 0-.3.3-.5.5-.8.3-.6.4-1.3.2-2-1.1-.4.4-2.3.4-2.9.1-.6-.3-1.1.1-1.7.3-.4.6-.8.8-1.2.4-1.2-.7-2.5-.2-3.6.3-.6.9-.4 1.3-.2.5.4 1.1.5 1.7.5.8 0 .8.3 1.3.9.6.7.6.3 1-.2s1-.2 1.4-.4.3-.2.3-.2l.1-.4 1.9-11.4 11.9-69.9c-10.4-1.3-20.4-3-29.7-4.9z"/></g><g id="WY"><path id="Path_21_" class="st0" d="M169.9 108.8l-5.3 35.5-2.2 14.9s8.7 1.3 20.9 3c15.2 2 35.8 4.6 52.4 5.7l2-28.7 2-28.2-69.2-7.2-.6 5z"/></g><g id="AK"><path id="Path_22_" class="st0" d="M385.6 236.1c.2-.3.3-1 .4-1.3s.2-.6.1-.9c-.1-.6-.3-1.1-.6-1.5-1.5.1-40.6 2.5-49.3 2.5l1.4 39.6.2.2c.2.3.3.7.8.8.4.1.8-.3 1.2-.4.4 0 .7-.1 1-.3.6-.4 1.3-.9 2-.7l.3 9.5 33.6-1.4c0-.2.1-.6.1-.7-.1-.6-.1-.8.2-1.3.9-1.7-.2-1-1.2-1.8 0-1 1.9-1.9 1.2-3.1-.7-1.2-1.5.8-2 1.3-1-.9.3-2.4.5-3.4s.3-.8.9-1.4c.4-.5.7-1.1.7-1.7V268c.2-1 .6-.5 1.2-1 .9-.7-.3-3 .8-3 .1-.5 1.3-1.2 1.5-.4 1.1.1 1.1-2.6 1.2-3.3.1-.4.2-.7.4-1 .3-.2.6 0 .7-.1.6-.4.4-1.1.5-1.8.2-1.3.7-2.5 1.5-3.6l.1-.2c.5-.6 1.2-.4 1.7-.9s.4-1.3.3-2.1c-.1-.7-.3-1.1-.3-1.8 0-.9.5-1 1-1.6s.3-1.5.4-2.4c.1-.6.5-1 1-1.4 1-1.2 1.4-3 1.8-4.6-1.8.3-3.5.5-5.3.6-1.7.3-.3-2.4 0-3.3z"/></g><g id="KS"><path id="Path_23_" class="st0" d="M333.2 195.5c-.5-.4-.9-.9-1.3-1.3-.5-.4-1.1-.6-1.3-1.1-.3-.5-.1-1-.1-1.6-.1-.5-.1-1 .1-1.5.4-.9 1.2-2 .5-3.1s-1.9 0-2.8-.8c-.3-.3-.5-.6-.6-.9-19.9 1.3-61.6-1.2-72.2-2l-2.2 42.2c44 2.3 77.9 2.2 82.8 2.1l-1.1-29.7c0-1-1.1-1.7-1.8-2.3z"/></g><g id="TX"><path id="Path_24_" class="st4" d="M349.2 310.9c-.1-.2-.2-.5-.3-.7v-.8c.2-.7.3-1.5.2-2.3-.1-.5-.3-1-.6-1.4-.3-.5-.7-.8-.9-1.2-.1-.2-.3-.5-.4-.7s-.3-.4-.4-.6c-.2-.4-.3-.8-.4-1.2-.1-.4 0-.9-.2-1.1-.4-.5-.7-.6-.8-1.4s-.2-.6-.6-1c-.6-.6-1-1.3-1.1-2.2l-.4-12.8-.3-9.5c-.7-.3-1.4.2-2 .6-.3.2-.6.4-1 .4-.4.1-.9.5-1.3.3-.4-.1-.4-.4-.7-.7l-.2-.2c-.1-.1-.2-.3-.4-.4-.3-.3-.6-.6-.9-.8-.4-.2-.7-.4-1.1-.4-.8 0-1.1-.7-1.8-.9-.4-.1-.7.1-1 .1s-.7-.4-1-.6c-.6-.3-1.2-.6-1.9-.7-.4-.1-.9-.2-1.3 0-.5.1-.7.4-1.2.6-.8.2-1.1-.6-1.9-.5-1.3.1-2.7.3-4 .6-.8.2-1.7.3-2.5.3-.9 0-1.7 0-2.6.2-.8.2-1.6.2-2.3-.3-.7-.4-1.5-.6-2.3-.3-.4.1-.8.5-1.2.5s-.6-.7-1.2-.6c-.4.1-.7.2-1.1.1s-.6-.4-1-.3c-.8.1-1 .8-1.8 1s-1.7.4-2.1-.2c-.2-.3-.6-.8-.9-1-.6-.6-.8-1.1-1.6-.3-.5.4-1.3 1.3-2 1.1-.7-.3-.9-1.3-1.4-1.8-.3-.3-.3-1.1-.7-1.3s-.7-.4-1.2.2c-.4.2-.5-.1-.9-.3s-.8.2-1.1 0c-.4.1-1-.3-1.3-.6s-.5-.5-.8-.6-.5.1-.8.1c-.6-.4-1.2-.1-1.9-.3-.4-.1-.8-.1-1.2-.1-.5-.1-.8-.2-1.2-.2s-.9 0-1-.4c-.4-.8-.8-2.1-1.6-2.6s-1.5 0-2.4-.1c-.8-.1-1.2-.8-2.1-.7-.4.1-.7.5-1.1.3-.5-.2-.1-.7-.4-1s-.7-.1-.9-.6c-.3-.6-.7-1.3-1.4-1.3-.1 0-.4.1-.5.1 0-.1-.1 0-.1-.1l.7-26.7-33.1-1.3-3.6 61.8-43.3-2.6v.1c0 .1.1.2.1.3v.1s0 .1.1.1c0 .1.1.1.1.2.1 0 .1.1.2.1l.2.1c.1.1.3.2.3.4v.1l1 .5c.1.3.2.5.3.8.3.5.7.9 1.2 1.1.6.4.4.9.7 1.4.5 1 1.8 1.3 1.9 2.4 0 .5.3 1 .8 1.1.6.3 1.1.8 1.6 1.3.7.8 1.3 1.6 1.8 2.5.3.4.7.7 1.1.9.5.3.9.8 1 1.4 0 .5.2 1 .6 1.4.4.3 1.1.6 1.4 1 .3.4.4 1 .8 1.5.3.4.9.4 1.4.3.9-.2.9.7 1.3 1.1.4.4.9.4 1.1.9.2.4 0 1.3 0 1.9-.1.7 0 1.3.1 1.9.4 1.2 1.4 2.2 1.8 3.5.3 1.5.8 2.9 1.3 4.3.6 1.1 1.4 2.2 2.1 3.3.8 1.1 1.8 2.2 2.9 3.1.6.5 1.2 1 1.8 1.4.7.3 1.4.6 2.1.8.7.3 1.4.7 2 1.2.5.5.9 1 1.5 1.5 1.3 1.1 3 1.5 4.6 1.1 1.4-.5 1.5-2.3 2.3-3.4.5-.6 1-1.1 1.5-1.7.4-.6.8-1.2 1-1.9.4-1.4 1.2-2.5 2.4-3.3 1.1-.7 2.3-1.2 3.6-1.3.1-.1.2-.2.4-.2.3.1.4.6.8.7.4.1.8-.1 1.2-.1.4.1.8.1 1.2.1s.7-.3 1-.1c.3.2.5.5.8.6s.7.1 1.1-.1c.4-.1.9-.4 1.3-.2.4.1.5.4.8.5s.7 0 1 .2.5.4.7.7c.5.7.4 1.7 1.4 1.8.8 0 1.6.4 2 1.1.4.6.8 1.2 1.4 1.6.3.1.6.4.8.6.2.3.1.7.3 1 .2.4.5.8 1 1 .4.2.8.2 1.1.5.3.3.3.9.3 1.3s.8.5.9 1.1c0 .2.1.5.3.7.1.2.2.4.2.7 0 .6.2 1.1.4 1.6.3.8 1 1.3 1.5 2 .3.5.5 1 .6 1.6.2.6.4 1.2.6 1.7.2.7.7.9 1 1.5.1.2.2.5.2.8.1.4.5.6.7.9.4.5 1.1.7 1.5 1.3s0 .9.6 1.4c.2.1.4.2.6.4.1.2.2.5.3.7.2.5.7.8.9 1.3l.6 1.5c.2.7.5.8 1 1.2.5.3 1 .6 1.4 1 .3.5.6.9.9 1.5.3.4.6.9.8 1.4.1.5.2 1.1.2 1.7 0 .4-.1.8 0 1.2.1.2.1.5.2.8 0 .7-.6 1 0 1.6.4.3.1.7.4 1.1s.6.5.9.9c.2.4.3.8.3 1.2.1.5.4.6.8.8.8.6 1.1 1.5 1 2.5 0 .4-.2.7-.2 1.1s.1.9.4 1.2c0-.1.1-.1.2-.2.3.1.7.2 1 .4.3.2.5.5.8.7s.7.4 1 .6.4.4.7.6c.7.5 1.7.7 2.2 1.3.2.3.4.5.8.4.3-.1.6-.2.9-.4.4-.2.5-.4.9-.4.4-.1.8-.1 1.2 0 .3 0 .6.2.8.4.2.2.3.4.6.6.3.1.4.1.6.5.1.3.2.5.4.8.5.3 1.1.4 1.7.5h.9c.3.1.4.3.7.4 1 .4 2-.5 2.8.4.5.6 1.1.6 1.8.8.3.1.5.2.8.4.2.2.4.5.7.6.3.1.5-.1.7-.2s.5.2.7.1c.3-.3.5-.6.6-1 0-.4-.1-.8-.3-1.1-.3-.7-.6-1.4-1-2s-.9-.9-1.3-1.5c-.6-.8-.2-1.1 0-2 .5-1.6.4-3.3-.1-4.9-.2-.6-2-4.1 0-3.6.6 2.6.4 5.3 1.2 7.8.2.7 1.9 5.4 2.8 4.7 1.2-.9-1.4-6-1.7-7.2-1.2-5.4 1-10 2.5-15-1.9-.1-1.8.9-2.4 2.4-.2 1-.6 2.1-1.1 3-.3.3-1 2-1.6 1.2-.2-.3 0-.7.1-1 .2-.5.3-1 .5-1.5.3-1.4 1.5-2.6 1.1-4-.1-.5-.4-1-.9-1.4-.5-.3-.8-.3-.7-1 .2-1.2 1.2-1.8 1.8-2.8.2-.5.6-1 1-1.4.6-.4 1-.2.8.5.5.1.9 0 1.2-.4.2-.2.4-.5.5-.7s.5-.4.7-.6c-.5.6.2.9 0 1.6-.3.7-.7 1.2-1.4 1.5-.3.1-.7.1-1 0-.4-.1-.8 0-1.1.2v1.3c0 .4.2 1 .6.5.2-.4.2-.8.7-.9 1.1-.4-.2 2.1-.1 2.1 1.7.3 2.9-2.1 4.3-2.9 1-.6 4.3-2.2 4-3.6-.2-.1-.4-.1-.6 0s-.3.3-.4.5c-.4-.3-1.5-.6-1.5-1.3 0-.9 1.4-1.2 1.9-1.8.9-1-.4-.6-.4-1.8 0-1 1-1.7 1.4-.5 1.2.1 1-1.6 2.1-1.4.1 1.1-.2 2.2 1.2 1.5.8-.4 2-1.9 3-1.2-.3.6-.8 1.1-1.4 1.6-.6.4-2 .5-2.4 1.2-1 1.6 2.2-.2 2.7-.3.7-.2 1.6.1 2.3-.2.7-.4.8-1 1.2-1.4.9-.8 1.9-1.6 3-2.2 1.2-.7 2.8-.9 3-2.6-.3 0-.6-.1-.9 0-.1-1 1.7-3.2 2.8-2.9-.2.6-1.1 1.9 0 1.7.4-.1 1-1.1 1.3-1.4.9-1.1 1.3-1.7.3-2.8-.5-.6-.8-.6-.9-1.5-.1-.8.4-1.1-.4-1.8-.6-.5-1.2-.4-1.2-1.4 0-.6.4-1.2 1-1.1 1.2.3 1.1 3.5 1.9.8 1.5-.1 2 0 1.5 1.5s-.2 1.6 1.4 1.7c.1.6 0 1.2-.5 1.6 1.3.1 2.2-1.3 3.3-1.7 1.5-.6 3-1.1 4.6-1.7.8-.3 1.6-.5 2.5-.7 0-.1.1-.1.1-.2.1-.2.3-.4.4-.5.1-.2.1-.2.2-.3l.3-.3c.2-.4.3-.9.2-1.4v-.6c0-.3.3-.4.5-.7.2-.4.3-.9.3-1.4s-.5-.9-.8-1.4c-.3-.4-.5-.9-.5-1.4s.7-.8.8-1.3c0-.5 0-1-.2-1.4-.1-.5-.1-1.1.1-1.6.1-.3.2-.5.3-.8.2-.2.3-.5.4-.8.1-.5.1-1 .1-1.5 0-.3.3-.4.4-.6s.1-.5 0-.8c-.5-.6-.6-1.1-.8-1.5z"/></g><g id="ID"><path id="Path_25_" class="st4" d="M162.9 108.8c-2.1.8-4.1-.1-6.3.1-2.3.2-3.3.1-5.2-1.4-.8-.8-1.4-1.6-1.9-2.6-.6-.7-1.3-1.3-2.2-1.6-1.5-.9-.9-2.3-.7-3.7.2-1.3 0-2.6-.5-3.8-.3-.9-.4-1.8-.4-2.8-.1-2.2-1.1-4.1-3.2-2.3-1 .8-1.1 1.2-2.2.4-.8-.6-1.5-1.3-2.2-2s-1.1-1.6-1.1-2.6c.1-1 .5-1.9 1.3-2.5.7-.6 1.6-.8 2-1.7s.1-1.9.2-3c.1-.9.8-1.7.7-2.7-.2-1.9-3.7-1.6-5-2.6-1.4-1.2-2.5-2.8-3.2-4.6-.8-1.9-1.8-3.5-1.6-5.6.1-1.2.6-1.3 1.2-2.2.8-1.2.2-1.2-.2-2.3-.1-.5.1-1.2-.1-1.6-.2-.4-.8-.6-.9-.8-.6-1.2.4-3.7.6-5.1l.9-4.8 1.2-6.4c-3.9-.7-7.6-1.5-11.2-2.2l-7.7 40.8c.9.8 1.5 1.8 1.7 3 .1.3-.1.6.1 1s.7.4 1.1.7c.4.3.4.6.4 1.1.1.3.2.7.2 1 0 .4-.1.7-.3 1.1 0 .1 0 .3-.1.4-.2.3-.5.4-1 .6s-.5.5-.8.9c-.4.5-.7 1-.9 1.6-.1.7-.1 1.5-.8 1.9v.1c-.5.4-1 .9-1.4 1.4-.5.5-.4 1.2-.4 1.9 0 .3 0 .4-.3.5-.3.2-.4.2-.6.3-.3.2-.5.3-.7.5-.1.3-.3.5-.5.7-.2.3-.4.4-.5.7-.1.4 0 .9.1 1.3-.6.6-.7 1.5-.3 2.1.1.3.2.7.2 1.1s-.2.9-.3 1.2c0 .2-.1.4-.1.7 0 .3-.1.7-.1 1.1s.3.6 0 1.1c-.1.2-.1.4-.2.6l-5.6 27.9c9.4 1.8 19.3 3.6 29.7 5.1 9.9 1.5 20.2 2.7 30.7 3.7l5.3-35.5c-.7-.1-2.9-.6-3.5-.6-1.2-.1-2.4 0-3.4.4z"/></g><g id="ME"><path id="Path_26_" class="st0" d="M602.4 72.2c-.6-.1-1.1 1.9-1.7 2.1-.4.1-.9 0-1.2-.3-.2-.4.3-.8.4-1.2 0-.5-.1-1-.4-1.4-.3-.3-.9 0-1.1-.6-1.2-.5.4-2.2-1.1-2.3-.5.1-1.1-.2-1.4-.6-.2-.4-.2-.9-.7-1.2-.7-.4-1.9-.2-2.7-.4-1.2-.4-1.4-1-1.6-2.1-.1-.4-.1-.8-.4-1.1l-.6-.3c-.2-.1-.3-.3-.6-.2.3-.9.3-1.8.1-2.6-.2-.7-.2-1.4-.4-2-.4-1.6-.9-3.2-1.5-4.7s-1.1-3-1.4-4.6c-.3-1.5-.9-3-2-4.1-.7-.6-1.5-1.1-2.3-1.5-.6-.3-1.4-1.3-2.1-1-.4.2-.7.7-1.1.9-.4.3-.7.6-1 1s-.4.8-.9.9c-.5.1-.9 0-1.4.1-.5.2-.7.4-1.1.4-.8 0-1.6-1.2-1.9-1.9-.3-.7-.5-1.8-1.3-1.8-1-.1-1.5 1.2-1.7 1.9-.3 1.2-.8 2.4-1 3.7s-.4 2.5-.7 3.8c-.6 2.3-1.4 4.5-1.9 6.8 0 .7.2 1.4.4 2v1.8c0 .5.5.9.5 1.5-.1.6-.2 1.1-.2 1.7.1.5.6.7.7 1.1.1.7.1 1.3 0 2 0 .6-.2 1.1-.7 1.5s-.8.3-.8 1.1c0 .4.3 1.3-.5 1.1.1.8 1.3 3.3.3 3.8-.2.1-.5-.1-.7.1s-.1.6-.1.8c0 .6-.1 1.2-.3 1.8-.2.5-.5 1.3-1.1 1-.4-.2-.6-1-1.1-1.1-.2 0-.3 0-.4.1l5.5 19.8c.1.3.2.6.3.8.1.2.3.4.3.7 0 .3 0 .5.1.8.1.2.3.4.4.7.4.4.9.4 1.2.7.4.3.5 1.2.6 1.7.1.7.7 1 1.2 1.4s1.5.3 2.1.8c.1-.5.1-1.1.1-1.7-.2-1.2.5-1.1 1.1-2 .4-.7.5-1.5.9-2.2s1-1.4 1.6-1.9c.8-.8.1-1.8.5-2.8.3.2.9.9 1.3.5.2-.2.2-1 .1-1.2s-.6-.7-.3-1.2.7-.3 1.1-.2c-.1.3-.3 1.1.1 1.3.6.3.6-.7.6-1 0-.5.1-.9.3-1.3.1-.3.1-1.3.6-1.2.5.1.2 1.2.1 1.6s-.2 1.5.4 1.5c.6 0 .5-1.1.5-1.4 0-.5-.1-1.7.5-1.9s.7.6.8 1c.6 3.7 3.2-2.1 1.1-2.3-.4 0-.9.3-1.1-.2-.2-.5.4-.5.7-.8.7-.5 0-1.8-.3-2.4-.1-.3-.4-1 .1-1.2s.3.8.6 1c.5.5.7-.4.6-.8-.1-.4-.6-.8-.4-1.4.5-1.1 1.6.1 1.8.7s-.4.6-.4 1.1.7.2 1 .1c.8-.1 2.7 1.4 2-.4-.3-.7-.5-2.2.5-2.4 1.2-.3.8 1.2.9 1.7.3 1 1.5.3 1.4-.6-.1-.5-.6-.6-.7-1s.2-.6.6-.4c.4.2.3.9.8.9s.6-.5.5-.8c0-.4-.3-2.5.6-1.6.5.5 0 1.9 1.1 1.9-.1-.9-.1-1.8 0-2.7.2-.7.6-.9.9-.2.2.5.2.8.7.8.4-.1.8-.2 1.1-.5.6-.6.4-1.7.8-2.4.3-.5.6-.8.9-.2.3.6.2.9.8.8.2-.7-.1-1.1 0-1.7s.6-1 1-1.4 2.3-2.6 1.1-2.9z"/></g><g id="VA"><path id="Path_27_" class="st4" d="M540.9 210.6h-.2l-21.8 3.8h-.2c-5 .9-10.7 1.8-16.6 2.8l-.5.1-14.2 2.4-.8.1-6.3 1-5.8.8h-.1c-7 1-18.1 2.5-21.6 3l.1-.1.1-.1c.1-.1.1-.2.2-.2l.1-.2.1-.1.1-.1.2-.1.1-.1.5-.3.4-.2.6-.3.2-.1.6-.2.1-.1.4-.1.1-.1c.3-.2.6-.3.8-.6.1-.1.2-.1.3-.2l.6-.3.5-.2.2-.1c.1-.1.3-.1.4-.2l.1-.1h.1l.1-.1.1-.1.1-.1.1-.1c.2-.2.3-.4.5-.6l.2-.2.1-.1h.6l.4-.5c.2 0 .3 0 .5-.1l.3.1.2-.1h.4v-.1l.1-.1.1-.1c.1-.1.2-.3.3-.4.7-1.1.9-2.5 1.7-3.5.2-.2.4-.5.6-.7l.1-.1.3-.3.1-.1.4-.4.3-.3.1-.1.2-.2c.2-.1.3-.2.5-.3l.3-.2h.1l.2-.1c.6-.4 1-1.2 1.5-1.6.2-.1.5-.2.7-.2.1 0 .2 0 .4.1.1 0 .1.1.2.2 0 0 .1 0 .1.1l.1.1.1.1.1.1c.2.5.5 1 .9 1.4.1.1.1.1.1.2V212.4c0 .2.1.4.2.6l.1.1c.1.1.2.1.2.2.3.1.7.1 1 0l.5-.2.2-.1c.2-.1.4-.2.5-.2.5-.1.9-.1 1.3-.2h.2c.4-.1.8-.2 1.2-.2H479.5l.2-.1c.1-.1.3-.2.4-.2l.9-.6c.3-.2.6-.3.8-.5.1-.1.2-.1.3-.2l.2-.1.1-.1.3-.2c.2-.2.5-.4.8-.6.1-.1.2-.1.3-.2l.5-.2h.2l.2-.1.2-.1c.1 0 .2-.1.3-.1l.3-.2c.1-.1.2-.1.3-.2.1-.1.2-.2.3-.2l.1-.1.1-.2.1-.1v-.1l.1-.1c.3-.3.5-.6.8-1 .2 0 .3 0 .5-.1 0 0 .1 0 .1-.1l.1-.1.1-.1.1-.2v-.1l.1-.2.1-.1c.1-.2.2-.3.3-.5.4-.6.6-1.3 1-2.1 0-.1.1-.2.1-.2l.2-.5.2-.5c.3-.8.5-1.6.7-2.4 0-.1.1-.2.1-.4h.1v-.2-.2c.1-.2.2-.4.4-.5h.1l.2-.1c.1 0 .3-.1.4-.1l.1-.1.1-.1.2-.2c.1-.1.1-.1.1-.2l.1-.2v-.2-.2-.4-.6-.2c.2-.4.4-.5.5-.8 0 0 0-.1.1-.1 0 0 0-.1.1-.1v-.1c0-.2.1-.4.1-.5.1-.5.2-1 .3-1.4 0-.2.1-.3.1-.5.1-.5.4-.9.7-1.2l.1-.1.1-.1.2-.2.1-.1h.1l.1-.1h.1l.3-.1c.2 0 .3-.1.5-.1H496.9c.3.1.5.4.8.3v-1h.4l.1-.1.2-.2.1-.1.1-.1c.2-.2.4-.5.5-.7.1-.1.2-.2.2-.3.2-.2.3-.4.5-.6l.1-.1.2-.3c.3-.4.5-.9.7-1.3l.2-.6c0-.1.1-.2.1-.3 0-.1.1-.2.1-.3l.1-.3c0-.1.1-.2.1-.3.1-.1.1-.2.1-.3.1-.1.1-.2.2-.2l.1-.1.2-.1h.1l.2-.1h.4c.1 0 .2-.1.3-.1l.2-.2c0-.1.1-.2.1-.3V182.3 182v-.4c.1-.4.3-.8.4-1.2.3-.4.5-.7.9-1.1l.1-.2v-.2s.1-.3.1-.4v-.1l.1-.2c0-.1.1-.2.1-.2 0-.1.1-.2.1-.3.1-.3.2-.6.2-.9 0-.1 0-.2.1-.4v-.4V175.1c-.1-.9.2-1.9.8-2.5.1-.1.3-.2.5-.2.4-.1.8-.2 1.2-.1.4 0 .8 0 1.2.2.4.2.7.4 1 .6h.1c.4.2.7.3 1.1.3.1 0 .2.1.4.1.1.1.3.2.4.3l.1.1c.1.1.4-.1.5 0l.3.2.5.3c.1.1.4.2.7.2l.2.1c.1 0 .2.1.2.2l.1.1c.1.1.1.1.1.2h.3c0 .1.6.1.6.1 0 .1.6.6.6.6 0 .1.1 1.4.2 1.4.7.1 1.4.9 1.9 1.3.3.2.7.3 1 .4.1 0 .2.1.2.1l.3.3.1.1.1.1c.1.1.1.2.2.3 0 .1.1.2.1.3 0 .2-.1.4-.2.6 0 .1-.1.1-.1.2V181.9l.2 1c0 .2-.1.5-.3.6l-.2.2-.1.1c-.4.4-.8 1-.9 1.6v.2c0 .1 0 .2.1.2v.1l.1.1c.2.2-.3 1.5 0 1.5.2 0 .9.8 1.1.8l.8-.1c.6 1 1.1-.3 2.3-.1 1.4.2 2.5-.3 3.9.2 1.2.3 2.4.8 3.6 1.4 1.7 1.3 0 2.2-.3 3.5-1.6-.3-.8 2.2.1 2.6.8.4 2.6-.5 2.2 1.5-.3 2-1.3-1-2.3.2s.8 2 1.4 2.7c.7.7 1.9 1.9 1.8 3.1.8 0 1.2.6 1.7.6s.6-.3 1-.4c1 .1 1.8.8 2 1.7.1.4 0 .9.2 1.3s.8.4 1 .8c.5 1.4 1.2 2.3 1.4 3.3z"/></g><g id="Layer_104"><path id="Path_28_" class="st4" d="M470.9 209.9c.2 0 .5.1.6.3-.1-.2-.4-.3-.6-.3-.3 0-.5.1-.7.2.2-.2.4-.3.7-.2z"/></g><g id="Layer_103"><path id="Path_29_" class="st4" d="M472.8 212c.1.1.1.1.1.2 0-.1-.1-.1-.1-.2-.4-.4-.7-.9-1-1.4.2.5.5 1 1 1.4z"/></g><g id="Layer_102"><path id="Path_44_" class="st4" d="M498.6 190.3l.1-.1-.1.1z"/></g><g id="Layer_101"><path id="Path_45_" class="st4" d="M502.1 184.5l.2-.1-.2.1z"/></g><g id="Layer_100"><path id="Path_46_" class="st4" d="M505 180l-.1.3.1-.3z"/></g><g id="FL"><path id="Path_47_" class="st0" d="M519.9 358.5c-.1-1.2-.4-2.4-.8-3.6-.5-2.2-1.5-4.5-2.2-6.6-.7-2.2-1.4-4.7-2.6-6.5-.7-1-1.6-1.9-2.5-2.7-.8-.7-2.1-1-2.1-2.3 1.1.8 2.2 2.8 3.4 3.2 1.4.5.3-1 0-1.7-.4-1.1-.3-1.8-1.1-2.7-1.5-1.5-2.1-3.7-3-5.5-.9-1.6-2.1-3.1-3.4-4.4-.8-.8-1.7-1.1-2.4-2.1-.7-.7-1.3-1.6-1.8-2.5.9 0 3.1 1.1 2.9-.5-.1-1.1-1.8-1.5-2.5-2.1-1.3-1-3.5-2.4-4.2-3.9-.3-1-.6-2.1-.9-3.2-.3-1-.5-2.1-.9-3.1-.5-2-1.2-4-2.1-6-.4-.8-1-1.4-1.4-2.2-.5.5-1 1-1.5 1.4-.7.7-1.6.1-2.4-.1-.4-.2-.8-.3-1.2-.1-.4.2-.7.5-.8.9-.1.8-.1 1.6 0 2.4-.1.9-.4 1.9-1.5 1.6s-.9-1.2-1.7-1.3c-.4-.1-.9-.1-1.3 0l-29.2 2.2c-.5 0-1-.2-1.3-.7-.5-.8-1.1-2-1.2-2.8l-25.5 2.8c-1.5.2-5.1 1.5-6.4.7-.1.9 0 1.6.7 2.3.3.4.8 1 .9 1.6.2.5-.1 1 .1 1.6.2 1.1 1.1 1.4 1.3 2.6.1.7.1 1.1.1 1.8.7.1 1.4-.9 2-1.3.8-.6 1.8-.9 2.7-.6-1 1.7 3.1.5 3.3-.3-.4.1-.9.2-1.3.1.7-1.3 1.7-2.3 2.9-3 1.3-.5 3.1.1 4.3.6-.4-.1-1.1 0-1 .5 0 .7.8.2 1.2.2 1-.2 2-.3 3-.3.9 0 1.8.4 2.5 1 .6.4 1.7 2 2.2 2 .2-1-.6-1.9-.3-2.9.6 1 2.6 2 2.4 3.3-.3 0-.4.2-.6.2.5.7 1.1 1.2 1.8 1.6.6.3 1.8.2 2.1.9s-.2 1.7.1 2.4c.5 0 .8-.4 1.1-.8 1 .5 2.2-1.9 3.5-1 .8.5 0 1.5 1.1 1.4.8 0 1.1-.9 1-1.6 1.5.7 1.5.3 1.9-1 .5-1.3 1.2-1.2 2.5-1.3 0-.6-.6-.5-.7-1 0-.2.6-.8.7-.9.5-.5 1.6-.7 2-1.2 2.3.9 4.4 2.3 6.6 3.4 1.1.5 2 1.2 2.7 2.1.6.8.6 1.6 1.4 2.2.4.3.8.2 1.1.6.3.4.3 1.1.7 1.5.9.9 2.1.2 3.2.6 1.4.6 2.4 2.8 3.4 4 1.2 1.4 1.1 2.9.9 4.7-.2 1.8-2 3.4-1.1 5.4.4.6.5 1.4.3 2.1-.3.7-.2 1.6.1 2.3.2.3.9 1.4 1.3 1.5 1.1.3.8-.8.8-1.6 1.1.2.8-1.5 2.1-1.2.2 1.5 0 2.9-.6 4.3-.7 1.4-.8 2 .5 3.1 1.1.9 1 1.7 1.8 2.8 1.2 1.7 1.8 5.9 4.7 4.9-.7-1.3-.1-3.7.7-1.4.3.9.1 4.1 1.6 4 .1-.4.3-1.6 1-1.3.7.2.2 1.3.1 1.8-.1.3-.1.5-.2.8.1.4.4.4.5.7.1.6 0 1.2.2 1.8.6 1.9 2.3 3.2 3.5 4.8s2.6 1.5 4.7 1.5c1.6-.2 3.1.6 3.8 2 1.3 1.8 1.6 2.4 3.7 1.6 2.8-1.1 2.2 1.5.2 2.2-1 .3-4.7-.1-4.6 1.6 0 1.7 3.4 1 4.2.6 1.7-.7 3.4-.9 5.1-1.5 3.5-1.2 1.8-8.3 2.8-11.2.5.6.8 2.9 1.2 1.1.1-1.3-.1-2.6-.5-3.9.3-1 .2-2.2.2-3.4z"/></g><g id="WI"><path id="Path_48_" class="st4" d="M407.1 105.6c-.7.2-1.3 2.4-1.6 3-.6 1.1-1.2 2.2-2 3.2-1.5 1.9-2.7 4-4.1 6 0-.4.1-.8.2-1.2v-1.1c0-1.5.9-2.6 1.6-3.8.9-1.5.9-3.2 1.6-4.8.1-.2.1-.3.2-.4-.4-.1-.8-.3-1.2-.6-.4-.3-.6-.9-1.1-1.1s-1.2.4-1.5.2c-.3-.2.1-1.1.1-1.4.1-.6.1-1.2.2-1.7.1-.4.5-1 .4-1.3-.1-.7-.5-.4-1.1-.6-.4-.2-.9-.4-1.4-.5-.6-.1-1.2.2-1.5-.3s.2-1-.2-1.4c-.4-.4-1.1-.1-1.6-.1-.5-.1-.9-.5-1.5-.5-.5 0-.9.3-1.5.3-.5 0-1-.2-1.3-.6-1.3-.9-2.7-1.4-4.2-1.5l-1.2-.3c-.3 0-.6 0-.9-.1-.7-.1-1.3-.3-2-.3-.7-.1-1.2-.4-1.9-.5l-1.7-.2c-1.3-.2-2.1-1.5-2.6-2.6-.2-.5-.5-1-.9-1.4-.3-.2-.6-.5-.9-.7-.1 0-.1-.1-.2-.1-1 .4-1.2-.5-2-1-1.2-.7-1.1.9-2.1.8-.4.7-.5 1.1-1.4.8-.2-.1-.7-.2-.7-.6 0-.5.5-.2.8-.4.8-.5.1-1.2.1-1.9s.7-1.2.5-2c-1.5.1-3 .5-4.4 1.2-1.1.8-2.3 1.5-3.6 2-1.2.3-2.5.4-3.8.1h-.5c-2.3 0-1.6 2.4-1.5 3.8s.1 2.8.2 4.2c0 1.4.3 2-.9 2.8-1.7 1.1-3.5 2.7-3.7 4.9-.1.6-.3 1.4 0 2s1.1.6 1.5 1.1c.5.8.2 1.2-.2 1.8-.4.6-.6 1.2-.6 1.9-.1 1.4-.2 2.9-.4 4.4-.2.7-.1 1.4.1 2 .3.5 1.3.8 1.7 1.2.6.6.8.9 1.7 1.1.7.1 1.3.2 2 .4.6.2 1.2.4 1.9.5.7 0 1.3-.3 1.9.3.4.5.7 1.1 1.1 1.6s.8 1.1 1.2 1.7c.4.6.9 1.1 1.5 1.4.8.5.6.8 1.1 1.5.7 1.2 2.3 1.3 3.1 2.3.3.6.5 1.3.6 1.9.1.4.3.4.2.8-.1.4-.5.5-.7.9-.1.4-.1.9-.1 1.4v.3c0 .9.3 1.8.7 2.7.4.6.4.6.4 1.3 0 .8-.2 1.2-.5 1.8-.7 1.4.8 2.8 1.2 3.9.2.6.1 1.4.8 1.8s1.4.2 2 .4c.7.2 1.3.7 1.5 1.4l29.3-2.7c0-1.1 0-2.2-.1-3.4-.2-2.7-2-4.9-1.9-7.7.2-1.2.5-2.4 1-3.5.3-1.1.5-2.3.5-3.4.1-2.6 1-5 1.3-7.6 0-1.4.2-2.7.5-4.1.5-1.1 1.1-2.2 1.8-3.1.8-1.3 1.2-2.7 1.3-4.2.1-.7.2-2.7-.6-2.4z"/></g><g id="CA"><path id="Path_49_" class="st2" d="M113.7 247c0-.1.1-.4.1-.4-.2-.3-.5-.5-.7-.8s-.4-1.2-.8-1.2c-.5-.2-.9-.5-1-1-.1-.4-.3-.3-.1-.6s.1-.6.2-.9c.1-.2.3-.7.2-.9-.1-.3-.6-.5-.5-.8.1-.5.2-.9.1-1.4 0-.4 0-1.1.1-1.5L63 170.2l1.2-3.7 9.3-37.5c-20.8-5-36-9.7-42.2-11.7.1 1.2-.2 2.5-.2 3.7.1.7.2 1.5.1 2.2l-.6 1.5c-.4 1.1-.2 2.4-.8 3.5-.3.6-.6 1.2-.8 1.8-.1.6.1 1.1-.4 1.5s-1 .3-1 .9c0 .6.8.7.5 1.3-.4.8-2.2.5-2.9 1.3-.7 1-1.1 2.1-1.3 3.2-.1 1.1.8 2.2 1.2 3.2.5 1.3.5 2.7 1.2 3.9.7 1 1.1 2.2 1 3.4 0 1.3-.2 2.6-.4 3.9-.3 1.1-1.2 2.2-1 3.3.4 1.1.7 2.3.8 3.4 0 .8-.6 1.1-.8 1.8-.2.7.1 1 .3 1.5.7 1.4 1.4 2.9 2 4.4.3.7.7 1.5 1.2 2.1.5.7.7 1.5.6 2.4.1.8-.1 1.6-.6 2.2-.4.6-1.4 1-.4 1.6.8.4 1.2.4 1.8 1.2.2.3.4.8.7.9s.6-.4.9 0c.3.4 0 .8.2 1.1s.7.2.9.4c.4.5-.4 1.5-.5 2s.1.8-.2 1.2c-.3.3-.7.1-.8.6-.3.7.8 1.2.8 2 .1 1.9-1 3.1.3 4.9.3.6.8 1.2 1.3 1.8.7.4 1.3.9 1.9 1.4.6.5.8 1.3.7 2 0 .5-.1 1.9-.9 1.5-.1-.4-.3-1.2-.9-1 0 .9-.1 1.9-.4 2.8-.3.9-.8 1.5-.5 2.5.5 1.9 1.7 3.1 2.5 4.8.4.6.7 1.4.8 2.2-.1 1-.7 1.5.3 2.2s.8.7 1.1 1.7c.2.8 1 .8 1.2 1.6.1.4.1.8.5 1.1s.7.2.9.5c.7.6 1.6 2.9 1.1 3.8-.1.2-.3.2-.4.3-.1.2-.1.3-.1.5-.2.4-.3.7-.5 1.1.3-.3.6-1.1 1.1-1v.4c.4 0 .9.2 1.1.5.6.9-.4 1.8-.5 2.8.1.5.1 1 0 1.4-.2.4-.3.8-.5 1.2-.1.5 0 1-.2 1.4s-.8.5-1 .9c-.5.9 1 1.5 1.6 1.9.8.7 1.7 1.1 2.7 1.3 1 0 2 .2 3 .5.9.5 1.2 1.4 2.4 1.4 1 .1 2 .4 3 .7 1.3.4 1.4 1.2 2.2 2.2.3.4.7.7 1 1.1.3.4.5 1.1.8 1.6.5.8 1.7 1.2 2.5 1.6 1 .5 1.9 0 2.8.7.9.7 1.7 1.4 1.6 2.4-.1 1.1-.2 2.3 1.1 2.3 1 0 1.7-1.1 2.3.1.5.9.6 1.7 1.5 2.5s1.8 1.2 2.4 2.1c.8 1.2 1.4 2.5 1.9 3.8.6 2.5.7 5.1.4 7.7.6-.2.6-.8 1.3-.8.7 0 1.3.4.8 1.1-.6.6-1.2.2-1.5.9-.1.5-.1.9.1 1.4.2.6.2.5.7.4.3 0 .6 0 .8.1.8.1 1.7.2 2.6.2 2.4.2 4.9.5 7.3.6 2.7.2 5.5.5 8.2.8 2.2.2 4.5.4 6.7.6l2.2.5c.1-.2.3-.3.6-.3.5-.1 1.1.3 1.6-.3.2-.5.5-1.3.5-1.8 0-.3.3-.5.5-.7-.1.1-.4-.1-.5-.1v-.5c-.1 0-.1-.1-.2-.1s-.3-.2-.4-.3-.5-.1-.6-.3c-.4-.3-.5-1.1-.6-1.5s-.1-.5-.1-.7c-.1-.2-.2-.1-.1-.3.3-.3 1.2-.7 1.7-.7s.6-.9.8-1.4c.1-.4.2-.1.5-.5.3-.3 1-.4 1.3-.8s.2-1.2.2-1.7c-.1-.5-.4-1-.2-1.5.1-.3.3-.5.3-.7s-.3.3-.3.1c-.1-.1-.5-.1-.5-.4s.9-.2 1.1-.3 0-.9.2-1.1c.5-.5-.4-.6.3-1.1.5-.3 1.6-.4 2.2-.5l1.6-.4c.1-.1.6-.7.6-.9 0-.1.1-2 0-2.2-.3-.2-.8.4-.9.3z"/></g><g id="SD"><path id="Path_50_" class="st4" d="M316.4 110.4c-1.1-1-2-2.1-2.8-3.3-.5-.8-.6-1.9-.4-2.9.1-1.3.7-2.4 1-3.6-17.4.5-63.9-2.4-73.6-3l-1 13.5-2 28.2c7.2.5 46.7 3.3 57.5 2.7.1 0 .3 0 .4.1.4.2.7.3 1.1.4.4.1.7.3 1 .5s.5.6.8.8.6.3 1 .3c.3.1.7.1 1.1.2.7 0 1.4 0 2.1-.1.7 0 1.4-.1 2.1-.1.3 0 .6.1.9.1.4 0 .7.1 1 .3.7.3 1.4.5 2.1.5h1.1c.4 0 .8.2 1 .6.3.4.7.8 1.1 1s.8.3 1.2.5c.4.1.8.1 1.2.3h.1c0-.1 0-.2-.1-.3-.3-.6-.2-1-.1-1.7.1-.3.2-.7.2-1v-.9c0-.4.2-.6.1-1 0-.3-.3-1-.2-1.3 0-.4 0-.6.2-1 .2-.3.3-.9.3-1.2-.1-.4-.4-.6-.6-.9s-.3-.7-.2-1c.1-.4.4-.2.3-.6 0-.3-.1-.8-.1-1.1h2.4l-.2-25z"/></g><g id="OH"><path id="Path_51_" class="st4" d="M477.1 141.5c-.6.6-1.2 1.2-1.7 1.8-.6.6-1.5 1-2.1 1.6s-.8 1.4-1.4 1.8c-.7.4-1.7.5-2.2 1.4-.6.9-.6 2-1.4 2.8-.7.6-1.6.9-2.5.7s-1.8-.2-2.6 0c-.8.4-1 1.4-1.8 1.7-.8.4-1.6-.2-2.4-.2h-2.3c-.4 0-2.2.7-2.5.4-.5-.6 1.7-1.4 2-1.5-.9.1-2.9.4-3.3-.7-1 .3-1.4-.2-2.3-.4-.6-.2-1.5 0-1.9-.5-3.4.6-12 1.7-13.4 1.8l5.6 39.1c.4-.2.9-.4 1.4-.4.6 0 .7.4 1.2.5s1.2-.1 1.7 0c.9.4 1.8.9 2.7 1.5.9.5 1.9.9 2.9 1.2 1 .2 2.1.2 3.1 0 2.1 0 3.7-.7 5.8 0 1.6.6 2.6 1 3.2 2.1 0 .1.1.1.1.2.6-.2 2.1 0 2.5-.3s.3-1.2.8-1.6c.4-.1.5 0 .9-.4.2-.2.4-.4.4-.7.1-.7-.7-1.2-.8-1.7-.3-.8 0-1.1.3-1.7.3-.7.1-2.1.8-2.7.7-.5.9.1 1.5.4.4.1.9.1 1.3-.1.4-.4.3-.7.3-1.1-.1-.7 0-1.3.1-2 .4-.5 1-1 1.6-1.3.5-.7 1.6-.8 2.3-1.3.3-.3.7-.6.9-.9.1-.4.7-.8.8-1.2s.1-1.1.5-1.3c0-.3.1-.3.3-.5.3-.5.7-.9 1.2-1.2.4-.2.7-.4 1.1-.7.1-.4.2-.8.1-1.2 0-.8-.4-1.5-.4-2.3-.1-.9 0-1.7.3-2.5.3-.7.6-1.4.8-2.2.3-1.1.2-2.2-.3-3.2-.1-.2-.2-.5-.4-.7.3-.4.1-1.1.3-1.5.1-.4.9-.5 1.1-.9h.4l-3.5-20.5c-.4-.1-.8.1-1.1.4z"/></g><g id="MO"><path id="Path_52_" class="st4" d="M394.6 225.2c-.2-.3-.4-.5-.7-.5-.9-.2-1 0-1.4-.9s-.9-.9-1.3-1.5c-.7-.9-.2-3-.4-4.2 0-.7-.2-1.4-.6-2-.5-.6-1.1-.9-1.4-1.6-.2-.5-.1-1.5-.6-1.8s-1.4.2-2.1-.1c-1.1-.4-2.2-2.1-3-3s-2.4-1.2-2.2-2.8c.1-.4.3-.6.4-.9s.2-.7.2-1c.1-.6.3-1.3.6-1.9.7-1.3.7-2.9 0-4.2-.2-.6-.8-1-1.4-1.1s-1.3.2-1.6.7c-.6.7-.7.7-1.5 0-.5-.5-.9-1.1-1.1-1.8-.2-1.2-.3-2.8-1.2-3.7-.4-.4-1.1-.5-1.7-.9-.5-.4-1-1-1.3-1.6-.8-1.1-1.9-1.3-2.8-2.4-.9-.9-1.4-2.1-1.7-3.4-.2-1.2-1-2.5-.9-3.8.2-.7.3-1.3.3-2-.1-.7-.5-1.4-.5-2v-.2l-.2-.1c-.3-.1-.5-.3-.8-.4-.2-.1-.3-.2-.4-.4-.2-.2-.4-.4-.6-.5s-.3-.3-.3-.4l-41.2 1.3c.2 1.3.5 2.5.9 3.7.4 1.5 1.8 1.5 2.5 2.4.4.5.7 1.2.8 1.9.1.3.1.7.2.9.1.3.4.9.7 1.1.9.8 2.1-.2 2.8.8.7 1-.2 1.7-.6 2.7-.2.5-.2 1-.1 1.5 0 .5-.1 1.5.2 2 .3.6.8.8 1.2 1.1l1.3 1.3c.6.6 1.6.9 1.7 1.9l1.1 29.8.3 7.7c8.7 0 47.4-2.4 48.9-2.5h.4s.6 1 .6 1.5c0 .3-.1.9-.2 1.2s-.4 1.3-.6 1.6c-.4.8-1.5 3 .4 2.8 1.9-.1 3.4-.3 5.2-.6v-.7c-.1-1.4 0-2.7.1-4.1.1-.6.4-1.1.8-1.6.1-.1.1-.2.1-.3v-.2c0-.1.1-.1.1-.1 0-.2.1-.4.1-.6v-.4c0-.1.1-.1.1-.2.6-.8 1.1-.1 1.9-.4.8-.3.5-2.4.4-3.1.4-.6.3-1.3.1-2z"/></g><g id="DE"><path id="Path_53_" class="st1" d="M541.2 175.3c-1-.6-1.8-1.4-2.4-2.3-.5-1-.4-2.2-1.1-3.1-.4-.4-2.1-1.5-1.5-2.3.2-.3.5-.1.8.1-.2-.5-.5-.6-.5-1.1v-.7c0-.5-.7-.9-.6-1.5 0-.3.1-.7.3-1-.1-.1-.1 0-.2 0-.5-.2-.9-.2-1.4-.3-.4-.1-.9-.3-1.3-.1-.5.3-.9.5-1.4.7-.3.1-.7.1-.8.4-.1.3-.1.6-.1.8-.2.2-.4.4-.6.5-.2.2-.2.2-.3.4l2.3-.4 3.1 13.9 7-2.1-.2-.6c-.5-.7-.3-.8-1.1-1.3z"/></g><g id="RI"><path id="Path_54_" class="st1" d="M570.7 122.7c-1.7.2-3.3.5-4.9.9l2.8 10.8c.2.2.5.2.6-.2s-.4-.5-.5-.7-.1-.5 0-.7c.4-.1.7-.3 1-.6.2-.2.5-.4.8-.5.4-.1.8 0 1.1-.2.8-.3-.2-1.5-.2-2.2s1-1.8 1.8-1.1c.5.4.5 1.7 1.4 1.6.5-.1.7-.6.8-1.2-2.1-1.4-3.7-3.5-4.7-5.9z"/></g><g id="NY"><path id="Path_55_" class="st1" d="M563.9 139.2c-.7.2-1.3.6-1.7 1.3s-1.1 1.1-1.9 1.1c0-.8 1.2-1.6 1.7-2.1s1.9-1.5 1.7-2.5c-.5-.3-1.1.7-1.4 1-.5.4-1 .8-1.5 1.1-.4.3-.8.6-1.3.8-.5.1-1 .3-1.4.4-.6.1-1.1.2-1.6.6-.4.3-.8.7-1.2 1.1-.9.8-1.9.1-2.8.5s-.9 2.2-2.4 1.7c.2-.6.4-1.2.7-1.8 0-.2.1-.4.3-.6l-3.3-13.9s.1 0 .1-.2 0-.4.1-.6v-1c0-.7.3-1.4.3-2.1.1-1.8.1-3.6-.1-5.4-.1-.3-.2-.7-.2-1.1 0-.3 0-.7-.1-1-.1-.7.1-1.5-.1-2.2-.1-.7-.3-1.4-.6-2.1-.1-.3-.3-.7-.3-1.1-.1-.1 0-.3-.1-.5s-.2-.4-.3-.5c-.3-.7-.7-1.3-.9-1.9-.3-.7-.7-1.3-1.2-2-.2-.4-.2-.8-.2-1.2v-1-1.2c0-.4 0-.8-.1-1.1-.3-1.3-.9-2.7-.4-4.2.1-.3.2-.7.2-1s0-.6.1-.9c.1-.2.2-.3.3-.5s.1-.3.1-.5c0-.3-.1-.6-.3-.9-.2-.4-.4-.7-.6-1.1-.1-.3-.1-.6-.1-.9 0-.5-.2-1-.4-1.5-.2-.7-.3-1.3-.3-2-.1-.6-.1-1.2-.2-1.8l-5.9 1.3-6.9 1.5c-.9.2-1.9.4-2.8.6-.3.3-.6.4-.9.7-.3.3-.5.8-.9 1.1-1.2 1.2-2.6 2.3-3.7 3.6-.6.8-1.2 1.5-1.8 2.2-.6.5-1 1.1-1.3 1.9-.1.4-.1.7 0 1.1 0 1.1-.6 2.1-1.5 2.6-.7.5-1.3 1.1-1.9 1.7-.4.5-2.3 1.3-2.1 2.1s1.7 0 2-.3c.7-.6.8-1.3 1.9-1.1v.9c-.2 1.3-1.5 1.8-1 3.2.5 1.5 1 2.3-.4 3.2-1.1.5-2.1 1.4-2.8 2.4-.6 1.2-.9 2.2-2.4 2.1-.6-.1-1.2-.1-1.8-.1-.6.2-1.1.5-1.6.8-1.1.7-2.4 1-3.7.8-1.4-.4-2.2-.9-3.6-.3-.5.3-1.1.4-1.7.4s-1.2-.2-1.7-.2c-1.2.2-2.4.6-3.6 1.1-1.1.4-2.1 1-2.9 1.8.6.4.7.9 1.1 1.5s1 .7 1.3 1.2c.9 2.3.4 4.8-1.3 6.6-.6.6-1.2 1.3-1.8 2-.6.5-1.2 1.1-1.8 1.8-.4.6-.5 1.5-1.3 1.8-.2.1-.8.2-1 .2l.8 5.7s35-7.2 43.7-9.5c.1 0 .3.1.4.1.3.1.7.1 1 .3s.5.4.8.7c.3.1.6.1.9.2.5.1.7.1.7.7-.1.7.1 1.5.3 2.1.2.3.3.5.6.7.1.2.3.2.5.2.3.1.3.1.5.1.4 0 .6.2.9.4s.3.6.7.8 1.5 0 1.8.6c.1.3.1.6.3.8 0 0 .3.2.4.2.2.3.3.2.6.2.6 0 1.2.1 1.7.3l.9.2c.3.2.6.3.9.4.6.2 1.3.4 1.9.6 1 .4 2 .4 2.5 1.5.4.8.7 1.3.4 2.1-.2.4-.3.8-.2 1.3.1.4.5.6.5.9.1.4-.2.8-.2 1.3.1.1.3.2.4.3 0-.6 0-2 1-1.9.1.4 0 1.3.6 1s.1-.9.4-1.3c.3-.3.7-.2 1-.4.3-.1.8-.4 1.1-.6.4-.1.8-.3 1.2-.5.6-.5 1.2-.8 1.9-1.2.6-.3 1.1-.6 1.6-1 1.1-.8 2.5-.4 3.6-1.1.5-.4 1.1-.7 1.6-.9.7-.2 1.3-.5 1.9-.9.6-.6 1-1.6 1.6-2.2.6-.6 1.6-1.1 2-2.1-.8 0-1.6.4-2.1 1-.6.6-1.1 1.3-1.9 1.5z"/></g><g id="AL"><path id="Path_56_" class="st1" d="M449.5 301.8c-.5-.4-.8-1.1-.5-1.8 0-.3.1-.8.1-.9-.1-.4-.4-.7-.4-1.1-.1-.7-.1-.8-.3-1.3-.3-.6-.5-1.1-.7-1.7-.1-.6.1-1.2.4-1.7.3-.6.4-1.2.4-1.9s0-1.3-.1-2c-.2-.6-.3-1.1-.3-1.7.1-.9 1.2-2.8.4-3.7-.4-.3-.8-.1-.9-.7 0-.3.3-.7.1-.9-.1-.8-.7-.5-1.2-.7-1-.4-1.5-1.5-1.2-2.5l-7.5-29.4c-9.7 1-20.1 1.6-29.1 2.3v.1c0 .5-.1 1.1-.1 1.6.1.7.1 1.4 0 2.1-.2.6-.2 1.2-.3 1.9 0 2.4.3 4.8.3 7.4v3.9c0 1.1-.3 2.1-.3 3.3-.1 2.5 0 5 .1 7.5.1 1.5 0 2.9 0 4.3 0 1.6.1 3.1.1 4.5 0 2.8.3 5.5.3 8.3 0 1.3.3 2.7.3 4v4c0 .8-.2 1-.7 1.5s-.2 1.4-.1 2.1c.1.3.2.7.1 1.1.5.4.1.6-.3 1.1-.1.3-.1 1-.1 1.2 0 .7 0 1.3.1 2s0 1.4-.1 2.2h.1c1.3.5 1 1.8 2.8 1.5.3-.5.3-1.4.9-1.7.5-.2 1.1.5 1.6.6-.1-1 1-1.9 1.3-2.9.2-.7.1-2.9 1.4-2.6-.6 1.7.4 1.4 1.2 2.6.7.9-.1 2.1-.3 3.2.9 0 1.8-.2 2.6-.5.3-.1.7-.4 1.1-.3s.2.7.5.9c.1 0 .2.1.3.1 0-.7 0-1.3-.1-2-.2-1.2-1-1.4-1.3-2.4-.2-.5.1-1.2 0-1.8-.2-.5-.6-.8-.9-1.2-.7-.6-1-1.5-.9-2.5 1.3.8 4.8-.2 6.3-.4l25.6-3.1c-.1-.3-.2-.2-.2-.5 0-.9-.1-.9-.5-1.4z"/></g><g id="ND"><path id="Path_57_" class="st1" d="M312.8 96.2c-.2-.3-.2-.5-.3-.9-.2-.3-.2-.7-.1-1 0-.4-.1-1-.2-1.4s-.4-.7-.6-1.2c-.2-.7-.1-1.3.1-2 .1-.5.4-.5.4-1 0-.4-.2-1-.2-1.4 0-.7.2-.8.1-1.4-.3-.9-.8-1.7-.4-2.8.2-.4.3-.8.4-1.2.2-.4.3-.8.3-1.3 0-.4-.2-1-.5-1.3-.1-.2-.2-.4-.4-.6-.2-.2-.3-.5-.5-.6-.3-.3-.4-.4-.6-.8-.1-.5.1-1-.1-1.3s-.7-.9-.9-1.3c-.1-.4-.2-.7-.2-1.1-.2-.9-.2-2.1-.1-3.1.1-.8.1-1.4.1-2.2-.1-.3-.2-.6-.4-.9 0-.1-.2-.3-.3-.4-.1-.2-.1-.3-.2-.5-.1-.3-.2-1.2 0-1.4 0-.5.1-1 .1-1.4.3-.4.3-1.1.5-1.5.1-.4.1-.9-.2-1.2-.2-.3-.3-.8-.4-1.2-.2-.4-.3-.5-.4-.8v-.7c0-.4-.1-.8-.3-1.2-22.3 0-44-1-64.2-2.5l-2.8 42.9c9.7.6 56.3 3.5 73.6 3 .2-.8 0-1.8-.3-2.5l-1-1.8z"/></g><g id="WA"><path id="Path_58_" class="st1" d="M71 27c.3.4.4.5.2.8-.3.4-.4.6-.1.9.7.6 1.5 1 2.3 1.1.1.2.5.5.5.7s-.4.6-.5.9c0 .3.2.3.4.7.1.3 0 .7 0 1-.8-.1-1.4-.6-2.3-.4-.8.1-1.5.6-2 1.3-.3.5-.3 1.7.2 2.1.7.5 1.1-.3 1.2-.9.1-.2.2-.8.5-.8.3-.1.3.2.3.5s-.2.7-.4.9c-.2.2-.6.5-.7.8-.1.5 1 .6 1.3 1s.6 1.4-.2 1.3c-.6 0-.9-.8-1.2-1.2-.4-.4-.9-1-1.6-1.1 0 .2.5.7.6.9.2.2.5.6.8 1 .6.6.8 1.5.6 2.3-.3 0-.8-.6-1-.8l-.6-1.5c-.2.4-.2.6-.6.1s-.5-.7-.9-.6c-1 .1-.2 1.7-1 1.8-.4 0-.4-.6-.3-.8 0-.4 0-.7-.3-1-.7-.5-1.4-.7-2.2-.7-.7-.1-1.4-.4-2-.8-.7-.3-1.5-.6-2.2-.8-.8-.3-1.5-.8-2.1-1.5-.7-.6-1.4-1.2-2-1.8-.9-.8-1.5-1.9-2.5-2.7-.6-.5-1.9-.8-2.2.2-.2.6 0 1.4-.2 2-.2.6-.4 1.2-.5 1.8-.2.9-.3 1.9-.3 2.8.2.9.4 1.7.7 2.6.4 1.6.2 3.5.4 5.1.2 1.4.2 2.9.2 4.3-.1 1-.1 2-.1 2.9.1.7 0 1.5-.1 2.2-.2.5-.7.9-.9 1.4s-.3 1.1-.7 1.5c.2.9.1 1.4.8 2.1s1 .5 1.8.7 1 .7 1.5 1.2c.3.3.6.5.9.7.3.1.7.2.9.4.2 0 .3.1.4.2.2.2.3.4.5.5l.5.3c.2.1.5.5.6.5.5.2.6-.8 1-1.1.5-.4 1.1.4 1.3.8.3.3.4.7.3 1.1-.1.4-.4.5-.4.9s.4.6.6 1.1c.3.7.1.8-.3 1.3-.3.3-.5.8-.4 1.2.1.5.5.8.7 1.3.1.3.2.6.2.9 0 .2-.1.4-.1.6 0 .3.1.3.5.5.4.1.8.1 1.2.1.6 0 .8.3 1.2.7.7.7 1.4.3 2.2.3.3 0 .7.1 1 .2.7-.1 1.3-.1 2-.1.6.3 1.3.4 2 .5.8 0 1.4-.2 2 .1.6.4.8.8 1.8.9.6.1 1.1.3 1.7.5.3.1.6.1.9 0 .7-.1 1.5-.1 2.2 0s1.3.7 2.2.5c.3 0 .5-.3.9-.3.2 0 .4.4.8.3.4 0 .5-.3.9-.5.3-.2.3-.3.9-.4s1.6-.6 2.1-.6.6.3 1.1.5c.4.2.7 0 1 .1s.3.5.6.6c.4.1.8.2 1.1.2.7.2 1.4.3 2.1.4.9-.1 2.8-1.3 3.6-.4l19 3.8V79l7.7-40.8c-32.7-6.6-52-12.5-52-12.5-.5.7-.3.9 0 1.3z"/></g><g id="CO"><path id="Path_59_" class="st1" d="M235.5 167.8c-16.6-1.1-37.3-3.7-52.4-5.7l-7.2 56.9c22.9 2.7 45.7 4.5 66.7 5.8 3.6.2 7.2.4 10.7.6l2.2-42.3.8-14.9c-6.8.4-14 .1-20.8-.4z"/></g><g id="MS"><path id="Path_60_" class="st3" d="M409.2 304.9v-4c0-1.3-.3-2.7-.3-4 0-2.8-.3-5.5-.3-8.3 0-1.5-.1-3-.1-4.6 0-1.3.1-2.8 0-4.3-.2-2.5-.2-5-.1-7.5 0-1.2.3-2.3.3-3.3V265c0-2.5-.3-4.9-.3-7.4 0-.6.1-1.3.3-1.9.1-.7.1-1.4 0-2.1 0-.5.1-1.1.1-1.6v-.1c-11.9 1-21.3 1.6-23.8 1.7-.8 1.1-1.4 2.3-1.6 3.6-.1.7 0 1.4-.5 1.8-.1 0-.4-.2-.7.1-.2.3-.4.6-.4 1-.2.7-.2 3.3-1.2 3.3-.2-.8-1.3 0-1.5.4-1.1 0 .1 2.4-.8 3-.6.4-1 0-1.2 1v2.1c0 .6-.3 1.2-.7 1.7-.6.6-.7.5-.9 1.4-.2.9-1.5 2.7-.5 3.6.6-.5 1.5-2.4 2-1.3s-1.2 2-1.2 3c0 .8 2.1.1 1.2 1.8-.3.5-.4 1-.4 1.6 0 .1 0 .2.1.4.1.3.1.3.3.6.3.3 1.1-.4 1.2.4 0 .4-.9 1-1 1.3-.1.9-.1 1.9.2 2.8.7.9 1.3-.1 1.9.3s-.3 1.6-.5 2c-.2.3-.2.7-.2 1.1.1.5.4.7.5 1.1.2.6-.1.9-.4 1.5-.2.3-.6.4-.7.7-.2.5 0 .6 0 1.1 0 .9-.3.7-1 1.1-.7.5-.4 1.2-.9 1.7s-1.2.1-1.3 1v.7c.9-.1.8.3.3.7-.4.4-1.4.7-1.2 1.5.1.8 1 .3.5 1s-1.6.3-.6 1.8c.4.4.4.6-.3 1.2-1 .9-1.1.6-.8 2 .2.9.3 1.9.4 2.8.8.1 1.6 0 2.4 0l7.9-.5 6.1-.4c1.3-.1 3.1-.6 4.4-.3 1.2.3.4 1.9-.1 2.9-.3.6-.4 1.2-.3 1.9.2.5.6.8.8 1.2.2.5.2.8.7 1.2.6.4 1 .6 1.4.9.6.5.9 1.2 1 1.9 0 .3-.1.8 0 1s.7.3 1 .4c.6.3 1 .6 1.4 1.1 0-.1.1-.3.1-.4-.1-.6-.8-1.1-.7-1.7.1-.7 2.1-1.6 2.8-1.9 1.1-.4 2.2-.2 3.2-.8.2-.1.4-.2.5-.4v-.1h.1v.1c.4.3.7.8 1.2.9.9.3 1.2-.7 1.2-1.5v-.6c.1-.7.2-1.4.1-2.2-.1-.7-.2-1.3-.1-2 0-.3.1-.3.3-.5.4-.4.7-1.3.1-1.8 0-.4 0-.7-.1-1.1-.1-.7-.1-.8.4-1.5.3 0 .3-.6.3-1.4z"/></g><g id="AZ"><path id="Path_62_" class="st3" d="M119.9 222.1s0 .2-.4.4-.8-.1-1.2.3-.5.9-1.1.2c-.5-.6-.5-.9-1.4-.9-.6 0-1.3-.3-1.8-.6-.4-.2-1-.2-1.2.4-.5 1.1.6 2.4.2 3.6-.2.4-.5.8-.8 1.2-.3.6 0 1.1-.1 1.7-.1.7-1.5 2.5-.4 2.9.2.7.1 1.4-.2 2-.2.3-.4.4-.5.8 0 .3.2.5.2.9s-.2.6-.2.9c0 .3.1.6.2.9v.6c-.1.4-.1.8-.1 1.2.1.5.1 1 0 1.5-.1.3.2.7.3 1 .1.2.1.5 0 .7-.1.3 0 .6-.2.9-.2.3-.3.3-.2.7.1.5.5 1 1 1.1.4.1.7.8.9 1.1.2.3.4.6.7.9v.1l.2.3c-.1 0-.1-.1-.1-.1v.1c.1.1.3.2.4.3s0 .8 0 1.1c0 .5-.3.5-.5.8-.1.1.1.2-.1.3h-.2c-.2 0-.3.1-.5.1-.3.1-.5.3-.9.4-.6.1-1.3.3-1.8.7-.7.5-.1 1.3-.6 1.8-.1.2-.3.3-.5.4-.3.1-.5.1-.5.3 0 .3.3.3.4.5.1.1.1.3.1.5 0 .3-.2.5-.3.7-.2.5.1.9.2 1.5s-.2.7-.5 1.1c-.3.3-.9.3-1.3.6-.3.3-.1.9-.2 1.3-.2.4-.7.7-1.2.7s-.8.7-1.1 1c-.1.2-.1.5 0 .7s.1.4.1.7.2 1.1.6 1.5c.1.1.4.1.6.3.2.1.3.2.4.3.1.1.1.1.2.1v.1c.1.1.5.2.5.1-.2.2-.5.4-.5.7 0 .5 0 1-.2 1.5-.3.5-1.1.3-1.6.3-.2 0-.4.1-.6.3h.2l-1.9 3.7 41 23 22.5 2.7 10-78c-18.3-2.2-37-4.9-54.3-8.4l-1.7 11.5z"/></g><g id="MD"><path id="Path_63_" class="st3" d="M544.5 182.7c-.2.3-.3.6-.3 1 0 .3 0 .7-.6.6 0-.1-.1-.1-.2-.2-.3.1-.3.4-.4.7l-.3.6c-.2.2-.4.4-.5.7-.1.2-.2.5-.5.5-.2-.3.1-.8-.3-1-.5-.3-.8.5-.9.9s.2.7.6 1c.4.3.5.7.8.8.3-.4.2-1 .5-1.3s.7 0 .8.4c.2.9-.8 1.2-1.3 1.9-.8 1-.1 1.6-.4 2.6-.3.8-.9 1.4-1.6 1.7-1.4.5.5 1.4.3 2.2-.8-.5-1.4 0-1.2.9.1.4.4.8.5 1.2 0 .4-.1.8-.3 1.2-.2.6-.5 1.8-1.3 1.6s-.5-1.4-.5-2.1c-.2-.8-.5-1.5-.9-2.2.5.3.7-.1.5-.5s-.6-.3-.3-.8c.3-.4.6-.1.4-.7-.1-.3-.5-.7-.4-1 .1-.6.6-.1.6-.7 0-.5-.7-.5.1-.7.1-.1.3.1.5 0s.1-.4.2-.5c.1-.1.4 0 .5-.1.2-.1.1-.3.3-.5s1.1-.3.9-.8c-.2-.5-1.1 0-1.4 0-.1-.2.1-.5.1-.7-.3 0-.7.1-.8.4h-.4c0-.3-.2-.4-.2-.6 0-.2.1-.5.1-.6-.1-.4-.5-.6-.9-.6-.1-.5.3-.8.2-1.3h-.7c-.2-.6.4-.5.5-.9s-.3-1-.3-1.3c-.1-.5 0-.6-.6-.8-2.2-.8-.2 2.5-2.4 1.7-.7-.2-.8-.8-1.1-1.4-.2-.6-.2-.9-.6-1.3-.4-.4-.8-.3-1.1-.7-.2-.4-.2-1.1-.2-1.7-.1-.9-.5-2.4-1.5-2.7-1.7-.4-2 1.6-1.5 2.7 1 1.8 1.9 3.8 2.9 5.6.5.9 1.1 2-.5 2.1s-1.2-1.7-2.4-2.1c-.7-.2-1 .5-1.5.7-.5.1-.5-.1-1.1-.3-1-.3-2 .5-3-.1-.1.4 0 .8.1 1.1h-.6c-.3 0-.5-.1-.8-.2l-.1-.1v-.1c0-.1-.1-.1-.1-.2v-.2c.2-.6.5-1.1.9-1.6l.1-.1.2-.2c.2-.1.3-.4.3-.6l-.2-1v-.5V182.2v-.2c0-.1 0-.1.1-.2.1-.2.3-.4.2-.6 0-.1 0-.2-.1-.3s-.1-.2-.2-.3l-.1-.1v-.1l-.3-.3c-.1-.1-.1-.1-.2-.1-.3-.1-.7-.2-1-.4-.5-.4-1.2-1.3-1.9-1.3h-.5l-.2-.2-.1-.1-.2-.1-.1-.1c-.1-.1-.1-.2-.2-.4l-.1-.3v-.1-.2c0-.1 0-.2-.1-.3v-.1c0-.1 0-.1-.1-.2l-.1-.1c0-.1-.1-.1-.1-.2l-.1-.1c-.1-.1-.2-.1-.2-.2-.1 0-.1-.1-.2-.1-.4-.1-.8-.1-1.1.1h-.4c-.1-.1-.1-.3-.2-.4v-.1l-.1-.2-.6-.4-.1-.1c-.1-.1-.3-.2-.4-.3-.1-.1-.2-.1-.4-.1-.4-.1-.8-.2-1.1-.3h-.1c-.3-.2-.6-.4-1-.6-.4-.1-.8-.2-1.2-.2-.4 0-.8 0-1.2.1-.2.1-.3.1-.5.2h-2l-.6-.1H503.8c-1.1 0-2.3.3-3.2 1-.5.3-.9.6-1.4.9-.4.4-.4.9-.8 1.4-.6 1-1.7 0-2.4 1-.3.4-.2 1-.4 1.5-.2.4-.5.8-.9 1.1 0 .2-.3.3-.5.3-.1-.6-.1-1.3-.3-1.9-.1-.8-.2-1.6-.3-2.5-.1-.9-.1-1.6-.2-2.3 0-.4-.1-.6-.1-1l36.4-6.7 2.7-.5 3.1 13.9 7-2.1c.9 1.7 2.8 3.8 2 5.5z"/></g><g id="Layer_79"><path id="Path_77_" class="st3" d="M521.2 187.1h-.6c-.3 0-.5-.1-.8-.2.2.2.5.2.8.2h.6z"/></g><g id="NH"><path id="Path_78_" class="st1" d="M570.2 103.2c-.2-.5-.2-1.3-.6-1.7s-.9-.4-1.2-.7c-.2-.3-.3-.5-.4-.7-.1-.3-.1-.5-.1-.8s-.2-.4-.3-.7c-.1-.3-.2-.5-.3-.8l-5.6-19.9c-.3.2-.5.6-1 .5-.5 0-.4-.2-.7-.1s-.2.5-.5.6c-.5.3-.8-.2-1.1.5s0 1.7-.3 2.4c-.3.6-.8 1-1.3 1.3v.5c.1.5.5.7.7 1.2.1.2.1.5 0 .7s-.3.4-.3.7c-.2.4-.2.9 0 1.3.1.2.2.4.2.7v.7c-.2 1.5-.8 3-1.8 4.1-.3.4-.9.4-1.2.9s0 1.3.1 1.9.4 1 .5 1.5c0 1-.1 2-.5 3-.1.6.2.9.4 1.5 0 .6-.1 1.2-.3 1.8-.1.5-.4 1-.3 1.5.2.5.7.6.7 1.3 0 .5-.4.9-.4 1.5 0 .5.4 1.1.5 1.7.2 1.2-.7 2-.4 3.2s1.1 2 1.2 3v1.1c4.4-1 9.2-2.1 11.1-2.7.5 0 1-.4 1.2-.7.5-.6 1.2-1.2 1.8-1.8.5-.6 1-1.2 1.6-1.7.4-.2 1.1-.8 1.6-1.2.1-.3.2-.6.2-1 .1-.7.1-1.5.1-2.2v-.1c-.6-.5-1.6-.4-2.1-.8-.5-.5-1.1-.8-1.2-1.5z"/></g><g id="CT"><path id="Path_79_" class="st3" d="M547.9 127.6c0 .1 0 .3-.1.3l3.3 13.9c.3-.2.5-.4.8-.4.5-.1.9-.3 1.3-.6.4-.4.3-1 .7-1.3.4-.4 1-.3 1.4-.7s.5-.8 1.2-.9c1-.2 1.9-1 2.9-1.3.9-.3 1.8-.5 2.8-.7.3 0 .7.1 1-.1.3-.2.4-.5.6-.7.2-.2.5-.3.8-.4.3-.1.3-.3.5-.4.7-.6 2.2-1 2.9-.3.2.2.4.2.6.4l-2.8-10.8c-6.2 1.1-15.9 3.6-17.9 4z"/></g><g id="MI-2"><path id="Path_80_" class="st3" d="M456.2 128.2c-.5-.8-1-1.2-1-2.2.1-.9 0-1.8-.3-2.6-.4-.8-1.2-1.3-1.5-2.1s-.1-1.8-.6-2.6c-.4-.6-1-1.1-1.7-1.4-1-.4-1.4.4-2.1.9-.7.3-1.6.4-2.4.3-.3.5.1 1.1-.4 1.4-.1.1-.4.1-.6.2-.2.2-.3.4-.3.6-.3.8-.7 2.8-1.5 3.2-1.1.6-2.2-1-2.7-1.8-.8-1.2-.2-2 .7-2.9.8-.9 1.3-1.9 1.7-3 .4-.9 1.3-1.5 1.7-2.4.5-1.3-.3-3-.5-4.3s0-2.4-.5-3.5c-.2-.4-2.1-2.7-2-2.9.1-.2 1.7.9 2.1.3s-1.8-2.7-2.2-3.1c-.9-1-2.1-1.8-3.4-2.2-1.1-.1-2.2-.3-3.3-.6-1.1-.5-1.8-.9-3-.5s-1.5 0-2.2-.9c-.8-.9-1.7-1.5-2.8-.4-.6.7-1.5 1.8-1.1 2.7.3.6 1.9 1.8 1.6 2.5s-2.5.5-3.1.9c-1 .7-.5 1.9-.4 2.9.1 1.1 0 2.1-.1 3.2.1.9 0 1.7-.2 2.6l-.6-1.2c-.2-.4-.5-1.2-1-.7-.3.4-.4 2.1-.8 2.3s-.1-1.5-.1-1.7c.2-.6.4-1.2.7-1.8.2-.6.3-3.8-.6-3.6-.6.1-1 1.1-1.1 1.6-.1.7-.2 1.4-.5 2.1-.3.6-.8.5-1.3.8s-.7 1.1-.8 1.7c-.3 1.5-1.4 2.2-1.3 3.8.1 1.6 0 3.1-.3 4.7-.3 1.2-1.5 2.3-1.3 3.6.1.7.6 1.3.7 2 0 .6-.2 1.3-.5 1.8-.6 1.2-.4 2.7.5 3.6-.1.9.3 1.7 1 2.2 1 .7 1 1.4 1.3 2.5.1.7.4 1.4.7 2.1.5.8.9 1.1.6 2.1-.5 1.8-.1 3.7-.6 5.6-.6 1.7-1 3.5-1.4 5.3-.2 1.4-.8 2.7-1.7 3.8 5.2-.5 16.6-1.5 19.4-2v1.1h.2c.7 0 2.7-.3 5.1-.6 3-.4 6.4-.9 8.3-1.2-.1-.1-.1-.2-.1-.4-.3-1.5 1.9-2.5 2-4 .1-.8-.3-1.5-.3-2.3.1-.6.4-1.1.8-1.6.8-1.1 1.8-2.1 2.8-3 .6-.8 1.1-1.8 1.3-2.8.2-.4.3-.9.4-1.3 0-.4.1-.9.4-1.2l.9-.9c.3-.8.3-1.6-.1-2.4-.5-.6-.2-1.5-.6-2.3z"/></g><g id="NC"><path id="Path_81_" class="st0" d="M545 221.3c0 1.4-.1 1.6-1.1 2.4-1.2 1-1.3 4-3.4 3.8 0-.3.1-1.3-.5-1-.4.2-.2 1-.2 1.3-.9.1-.5-1.3-1.4-1.3s-.4 1-1 1.3c.4.5 1.1 1.2.9 1.9-.2.7-1.7 1.2-.6 1.9.6.4 2.5-.5 3.2-.6 1.4 0 2.5.3 2.4 1.9s-1.5 3.1-2.2 4.3c-.9 1.4-1.9 1.5-3.4 1.8-1 .2-2.6.8-3.7.5-.6.4-1.5.7-2 1.1-.8.5-1.6 1.1-2.3 1.8-1.6 1.7-2.2 4.1-3.2 6.1-.6 1-1.2 2-1.9 3-.1-1.1.2-2.1.1-3.2-.8.2-.6.9-.9 1.5-.3.6-.8 1.1-1.4 1.3-1.1.4-2.1 1.1-3 1.9l-15.2-10.5v.3l-12.3 2-2.1-2.8c-.4 0-.8.1-1.2.1-.4 0-.4-.9-.7-1.5l-10.2.7c-.5.4-1.1.7-1.7.7s-1.3 0-1.9.1c-.7.1-1.1.8-1.6 1.1s-1.2 0-1.9.3c-.3.1-.5.4-.8.4-.3.1-.6.2-.9.1-.6.1-1.2.4-1.7.8-.2.2-.3.5-.5.7-3.7.9-8.9 1.7-14.4 2.4v-.9c0-.2-.1-.8 0-1.1 0-.1.2-.2.2-.3 0 0 .4-.3.4-.7s-.2-.7-.1-1l.1-.2s.1-.2.1-.3c.3-.9 1.2-.6 1.7-1.2l.1-.1.1-.2c.3-.5.4-.8.8-1.3l.2-.6c.2-.3.3-.4.5-.7s.6-.6 1-.9c.3-.2.6-.4.9-.5.2 0 .5 0 .7-.1l.3-.1h.1c.3-.1.7-.2 1-.2.4 0 .8-.1 1.1-.3.1-.1.1-.1.2-.1l.1-.1.1-.1.1-.1c.1-.1.2-.3.2-.4l.1-.1c.2-.3.5-.6.8-.8.1-.1.1-.1.2-.1l.2-.1.2-.1.2-.1c.3-.1.7-.2 1-.3s.5-.2.7-.4l.3-.3c.1-.1.1-.2.1-.2 0-.1.1-.2.1-.3s.1-.3.1-.4c.1-.5.3-1.1.5-1.6.1-.2.1-.3.2-.5s.2-.4.3-.5l.1-.1.2-.2c.2-.3.5-.4.8-.5.1 0 .3.1.4.1l.2.2c.1.1 0 1.6 0 1.6s0 .3.1.3l.1.1c.2.1.4.2.6.1l.2-.1h.1c.1 0 .1 0 .2-.1l.2-.1.2-.1c.2-.1.3-.2.5-.4.3-.3.5-.6.7-.9.2-.4.6-.8 1-1 .3-.2 1-.4 1.3-.7.2-.3 0-.8.6-1.1l-.9-5.9 6.2-1.4 6.3-1 .8-.1c4.9-.8 9.6-1.5 14.2-2.2l.5-.1c6-1 11.6-1.9 16.6-2.8h.2l21.8-3.8H540.7v.5h.2c-.1 1.1-.1 2 1.1 2.5.1-.6.2-1.1.2-1.7.9-.1.7 1.4.9 2s.6.9.8 1.4c-.8.1-2.7-1.3-3-.3-.1.4-1.3-.9-1.3-.9-.9 0-.8 1.9-.8 2.4-.9.4-1.1-.1-1.6-.5s-1.1-.6-1.8-.8c-.7 1.2 2.8 2.3-.1 2.8-.7.1-1.5.3-2-.2s-.1-1.5-1.2-1.7c-.2.4-.2.8.1 1.2h-.2c.1.7-.7 1.9-.5 2.5.6 1.1 1.9-.5 2.5-.7.9-.4 1.9.1 2.9-.1.9-.1 1.9-.4 2.8-.7 1.3-.5 3.9-1.2 4.8.2.4 1.2.6 2.1.5 3z"/></g><g id="MI-1"><g id="Layer_8"><path id="Path_83_" class="st3" d="M433.3 89.7c-.5-.2-.9-.6-1.2-1-.2-.5-.3-1-.4-1.5-.8-1.9-4.6-1.1-6.2-1v-.1c-.5-.1-1-.4-1.4-.8-.3-.6 0-1.2 0-1.9 0-1.2-1.5-1.1-2.4-1s-1.7 1-2.9 1c-1-.1-2.1-.1-3.1-.1-1.1.2-1.6 1.3-2.5 1.9-.5.1-.8.6-1.2.8-.5.2-1 .5-1.4.9-.3.4-.8.7-1.4.8-.6.1-1.1 0-1.4.5-.1.4-.3 1.1-.8 1s-.6-1-.9-1.4c-.7-.8-2.3 0-2.7-1.1-.5.1-1-.5-1.4-.8s-.9-.6-1.5-.8c-.6-.1-1 .6-1.4-.2-.2-.3 0-.6-.5-.5s-.4.4-.6.5c.1.3-1 .4-1.3.3V85c.5-.2.5-.4.2-.7-.2-.3-.3-.6-.5-.8-.8-.7-1.1 1-1.7.6 0-.5.2-2.1-.5-2.2-.8-.1-.9 1-1.3 1.2-.2.4-.4.7-.7 1.1-.5.5-.9.4-1.1-.3-.2-.9 0-1.8.5-2.6.5-.6 1.2-1.1 1.9-1.4.5-.4 1-.9 1.3-1.5.4-.8.9-1.5 1.5-2.2.5-.5 1.5-.8 1.9-1.4.9-1.2-2.4-.6-2.9-.4-1.3.7-2.6 1.7-3.6 2.8-1.4 1.3-2.6 2.9-4.1 4.1-1.2.9-2.4 1.8-3.5 2.9-1.2 1.3-2.4 1.2-4.1 1.3-1.7.2-2.5 1.3-3.7 2.2-.9.6-1.9 1.1-2.9 1.5h-.1c.1 0 .1.1.2.1.3.2.6.4.9.7.4.4.6.9.9 1.4.5 1.1 1.3 2.4 2.6 2.6l1.7.2c.7.1 1.2.4 1.9.5.7.1 1.3.2 2 .3.3.1.6.1.9.1l1.2.3c1.5.1 3 .7 4.2 1.5.3.4.8.7 1.3.7.6 0 1-.3 1.5-.3s.9.3 1.5.4 1.2-.3 1.6.1 0 .9.2 1.3.5.4 1.5.4c.5.1.9.3 1.4.6.5.2 1-.1 1.1.6 0 .4-.3 1-.4 1.3-.1.6-.1 1.2-.2 1.7-.1.2-.4 1.2-.1 1.4.3.2 1-.4 1.5-.2s.7.8 1.1 1.1l1.2.6c.8-1.3 1.3-2.7 1.5-4.1 0-.5 0-.9.2-1.3.3-.5.9-.7 1.1-1.2s0-2.2 1.2-1.9c.1 1.2.9.7 1.8.5 1.1-.2.9-1.5 1.3-2.4.2-.4.9-.8 1.2-.2.3.6-.4 1.2-.6 1.7-.2.4-.4 1.5 0 1.8s1-.4 1.2-.7c.2-.3.8-.8 1.1-1.2.3-.5.6-1 1-1.5.8-.8 2-1.3 3.2-1.2.6 0 1.2-.1 1.7-.5.4-.4.8-.7 1.2-1 .4-.3.7-.9 1.2-1.1s1.3 0 1.9 0c.5 0 1.1.1 1.6.3.6.2 1.2.3 1.8.4.6.1 1.1.3 1.6.6s.6 1 1.2 1.2c1.8.3-.3-2.4 1.1-2.5.5.3.8 0 1.2-.3.6-.4 1-.2 1.7-.2 1.3-.1.8-1.5-.1-2.1z"/></g></g><g id="OR"><path id="Path_84_" class="st3" d="M118.2 83.9c-.4-.3-.8-.4-1.1-.7s0-.7-.1-1c-.2-1.2-.8-2.2-1.7-3l-.1-.1-18.9-3.8c-.8-.9-2.7.2-3.6.3-.7 0-1.4-.1-2.1-.4-.4 0-.8 0-1.1-.1-.2-.1-.3-.5-.5-.6s-.7 0-1-.1-.7-.5-1.2-.5-1.5.5-2.1.6-.6.2-1 .4-.4.4-.8.5c-.4 0-.6-.3-.8-.3-.4 0-.7.3-1.1.3-.8.1-1.2-.4-2-.5-.7-.1-1.4-.1-2.1 0-.3.1-.7.1-1 0-.6-.2-1.1-.4-1.7-.5-1-.1-.9-.5-1.7-.9-.8-.5-1.4-.1-2.1-.1-.7-.1-1.3-.2-2-.5-.7 0-1.3 0-2 .1-.4-.1-.5-.2-1-.2-.8 0-1.3.4-2.1-.2-.4-.5-.7-.8-1.3-.8-.4 0-.8 0-1.2-.1-.4-.2-.5-.2-.5-.5s.1-.4.1-.6c0-.3-.1-.6-.2-.9-.2-.5-.6-.8-.7-1.3-.1-.5 0-.9.4-1.2.4-.5.6-.6.3-1.3-.2-.5-.6-.6-.6-1.1s.3-.5.4-.9c.1-.4 0-.8-.3-1.1-.3-.4-.8-1.2-1.3-.8-.4.3-.5 1.2-1 1.1-.2 0-.5-.3-.6-.5l-.5-.3c-.3-.1-.4-.3-.5-.5-.1-.1-.3-.1-.4-.2-.3-.2-.6-.3-.9-.3.3.2.5.4.7.7h-2.3c-.8 0-1.2-.5-1.9-.5-.9-.1-.8.8-1.1 1.4-.3.6-.8 1-1.1 1.6-.7 1.4-.7 3.4-.9 4.9-.3 1.4-.8 2.7-1.5 4-.6 1.5-.8 3.2-1.6 4.7-.7 1.2-1.3 2.4-1.7 3.7-.4 1.4-.4 2.9-1.2 4.1-.8 1.3-1.4 2.7-1.7 4.2-.5 1.3-1.1 2.6-1.8 3.7-.5 1.1-1.4 2-1.9 3-.4 1.1-.9 2.1-1.6 3.1-.8.9-1.4 1.9-2 2.9-.6.9-1.6 1.7-2 2.8-.4 1 0 2.7-.1 3.9-.3 1.4-.4 2.8-.3 4.3.1 1.1.5 2.2.7 3.3v.4c6.2 2 21.4 6.7 42.2 11.7 9.2 2.2 19.6 4.3 30.7 6.5l5.6-27.7c0-.2.1-.3.2-.5.3-.5.2-.7.1-1.2s0-.7 0-1.1.1-.7.1-.9c.2-.4.3-.9.3-1.3s-.1-.7-.2-1c-.4-.7-.3-1.5.3-2.1-.1-.4-.1-.7-.1-1.1.1-.4.3-.4.4-.7.2-.2.4-.3.5-.6.2-.2.5-.5.7-.6.2-.2.5-.2.6-.3.1-.1.6-.3.6-.5 0-.7-.2-1.1.1-1.9.4-.5.9-1 1.4-1.4v-.1c.7-.3.9-.8 1-1.5.2-.6.4-1.4.8-1.9.3-.3.3-.8.7-1s.8-.3 1-.6c.1-.1.2 0 .2-.2.1-.3.3-.7.4-1.1 0-.3.1-.6 0-.9.2-.7-.2-1.4-.6-1.6z"/></g><g id="NE"><path id="Path_85_" class="st3" d="M326.8 182.4c-.7-1-2.1-1.2-2.5-2.3-.4-1.2-.8-2.4-1-3.6v-.1c-.1-.9-.6-1.7-1.4-2.3-1.1-.9-.5-1.3-.6-2.6-.1-.5-.2-.9-.4-1.3-.3-1 .4-2-.3-3-.3-.4-.8-.8-.9-1.3 0-.6 0-1.1.1-1.7 0-1.3-.7-1.5-1.6-2.3.2-.8.3-1.7.1-2.5.1-.8-.4-1.6-1.1-2-.1-.5.1-.9 0-1.4s-.3-.4-.6-.8c-.7-.7.2-1.2 0-2s-.9-1.1-1.1-1.9c-.1-.6-.2-1.2-.3-1.9-.1-.5-.3-1-.6-1.4-.1-.2-.2-.4-.2-.7-.4-.1-.8-.1-1.2-.3-.4-.1-.8-.3-1.2-.5-.5-.2-.9-.6-1.1-1s-.6-.6-1-.6h-1.1c-.7-.1-1.4-.2-2.1-.5-.3-.2-.6-.3-1-.3-.3 0-.7-.1-.9-.1-.7 0-1.5.1-2.1.1-.7.1-1.4.1-2.1.1-.4-.1-.7-.1-1.1-.2-.4 0-.7-.2-1-.3-.3-.2-.5-.6-.8-.8s-.6-.4-1-.5-.8-.2-1.1-.4c-.1-.1-.3-.1-.4-.1-10.8.6-50.3-2.2-57.5-2.7l-2 28.7c6.8.6 13.7.7 20.6.4l-.8 14.9c10.6.7 52.2 3.3 72.2 2-.1-.2 0-.5 0-.7-.3-.7-.4-1.3-.8-1.8l-.1-.3z"/></g><g id="OK"><path id="Path_86_" class="st3" d="M335.9 227.5c-4.8.1-38.8.2-82.7-2.1-3.5-.2-6.9-.5-10.5-.7l-.5 7.7 33.1 1.3-.7 26.4c0 .2-.1.3 0 .4s.3 0 .4 0c.7 0 1.2.4 1.5 1.1.2.5.5.5.8.8s.1.7.6.9c.5.2.6-.1 1-.2.9-.1 1.2.6 2 .7.9.1 1.7-.5 2.6.1s1.1 1.6 1.5 2.4c.2.4.5.6.9.6.5 0 .9.1 1.3.2.4 0 .7.1 1.1.1.7.2 1.5-.2 2.1.2.3 0 .5-.2.8-.1s.4.4.6.6 1.1.8 1.5.6c.4.2.8-.1 1.1.1.4.2.5.4.9.2s.5-.4.9-.2.6.8.9 1.2c.5.5.8 1.8 1.5 2s1.6-.7 2-1.2c.9-.8 1.1-.2 1.6.4.3.3.5.5.8.9.4.6 1.4.5 2 .4s1.1-1 1.9-1.1c.4-.1.6.1 1 .2s.8.1 1.2 0c.6-.1.6.5 1.1.5.6 0 .8-.3 1.2-.4.8-.3 1.6-.2 2.3.2.7.5 1.5.6 2.3.4.9-.1 1.7-.2 2.6-.2s1.7-.1 2.5-.3c1.3-.2 2.7-.6 4-.7.8-.1 1.2.8 2 .6.5-.1.7-.5 1.2-.7.4-.1.8-.1 1.2-.1.7.1 1.3.4 1.9.7.3.2.6.6 1 .6.3.1.6-.2 1-.1.7.2.9 1 1.7 1.1.4-.1.8 0 1.2.2.3.2.6.5.9.8.1.1.2.2.4.3l-1.4-39.5-.3-7.3z"/></g><g id="KY"><path id="Path_87_" class="st3" d="M471.1 209.7c-.6.4-1 1.2-1.5 1.6l-.2.1-.1.1-.3.2c-.2.1-.4.2-.5.3l-.2.2-.1.1-.3.3c-.1.1-.2.3-.4.4l-.1.1-.3.3-.1.1c-.2.2-.4.5-.6.7-.8 1-1 2.4-1.7 3.5-.1.1-.2.3-.3.4l-.1.1-.2.2h-.1l-.1.1-.1.1-.2.1h-.5l-.6.1H461.9l-.1.1h-.1l-.3.6-.1.1c-.2.2-.3.4-.5.6l-.1.1-.1.1-.1.1-.1.1h-.1l-.1.1c-.1.1-.2.1-.4.2h-.2l-.5.2-.6.3-.3.2c-.3.2-.5.4-.8.6l-.1.1-.4.1h-.1l-.6.2-.2.1-.6.3-.4.2-.5.3-.1.1-.2.1-.2.1-.1.1-.2.2v.1l-.2.2-.1.1-.1.1-2.5.3-1.9.2-.6.1-.9.1-1.5.2-.9.1c-2.9.3-5.8.7-8.6.9l-1.3.1h-.1l-2 .2h-.2l-1.2.1-3 .3-1.1.1-3.5.3-1.1.1h-.8l-1.2.1c-1.3.1-2.5.1-3.7.2h-1.1l-1.2.1H409.6l-.2 3.5s-13.5.3-17.4.3c0-.2.1-.3.1-.5v-.5l.1-.2.1-.2.2-.1c.6-.3.9.1 1.7-.2.5-.6.4-2.3.3-3 0-.7.4-1.2.1-1.8.5-.3 1.1-1 1.4-1.5.7-.9 1.1-1.9 2.3-2 1 0 2.1.1 3.1.4 1.3.3 1.5-.7 1.9-1.8 0-.3.2-.5.1-.8s-.7-.8-.7-1.2c0-1.3 3.2.4 3.3-1.3-.1-.7-.7-1.2-.7-1.9 0-.8.9-.7 1.3-1.3.2-.3.3-.7.3-1.1v-.8c.4-1.9 1.8-1.7 3.4-2.1 1.6-.3 3.3-.2 4.8.2.5.1.8.4 1.3.3.7-.1.5-.5 1-.7 1-.4 1.3 0 2.3.1.9.1 1.7-.2 2.3-.8.6-.6.9-1.5.7-2.3h-.5c0-.7.5-1.3 1.2-1.5.8-.1.9.4 1.5.8s1.3 1.2 1.8 1.3c.5 0 .9-.5 1.5-.6.9-.1.9.9 1.6-.3.3-.5.1-1.4.2-2 .1-1.8.7-2 2.2-2.6.3-1 .5-2.1.7-3.2.1-1.3 0-1.8 1.2-2.1.5-.2 1 0 1.5-.1s.6-.6 1.1-.8c1-.4 2.1.2 3-.8 1.1-1.2-.3-1.6.1-2.7.3-.4.6-.7 1.1-.9.4-.2.9-.4 1.4-.4.6 0 .7.4 1.2.5s1.2-.1 1.7 0c.9.4 1.8.9 2.7 1.5.9.5 1.9.9 2.9 1.2 1 .2 2.1.2 3.1 0 2.1 0 3.7-.7 5.8 0 1.7.6 2.7 1 3.2 2.2l.1.2.1.2v.1c.1.4.2.8.3 1.3.4 1.6 1.1 3.2 2.1 4.6l.3.6c.2.4.4.8.7 1.2.1.2.2.3.4.5.2.3.5.7.8 1 .4.5.8 1 1.3 1.5 1.4.2 1.9 1.1 2.1 2.2z"/></g><g id="DC"><path id="Path_88_" class="st1" d="M521.7 178.6l-1.3 1.7c-.1-.1-.2-.1-.3-.2-.3-.1-.7-.2-1-.4-.5-.4-1.2-1.3-1.9-1.3h-.5c-.1-.1-.3-.2-.4-.3l1.3-1.9 4.1 2.4z"/></g><g id="gradient_wash"><linearGradient id="SVGID_1_" gradientUnits="userSpaceOnUse" x1="23.592" y1="-172.736" x2="602.79" y2="-172.736" gradientTransform="translate(0 377)"><stop offset="0" stop-color="#2b9cd8"/><stop offset=".17" stop-color="#2a9fd8"/><stop offset=".61" stop-color="#1bcfe1"/></linearGradient><path d="M602.4 72.2c-.6-.1-1.1 1.9-1.7 2.1-.4.1-.9 0-1.2-.3-.2-.4.3-.8.4-1.2 0-.5-.1-1-.4-1.4-.3-.3-.9 0-1.1-.6-1.2-.5.4-2.2-1.1-2.3-.5.1-1.1-.2-1.4-.6-.2-.4-.2-.9-.7-1.2-.7-.4-1.9-.2-2.7-.4-1.2-.4-1.4-1-1.6-2.1-.1-.4-.1-.8-.4-1.1l-.6-.3c-.2-.1-.3-.3-.6-.2.3-.9.3-1.8.1-2.6-.2-.7-.2-1.4-.4-2-.4-1.6-.9-3.2-1.5-4.7s-1.1-3-1.4-4.6c-.3-1.5-.9-3-2-4.1-.7-.6-1.5-1.1-2.3-1.5-.6-.3-1.4-1.3-2.1-1-.4.2-.7.7-1.1.9-.4.3-.7.6-1 1s-.4.8-.9.9c-.5.1-.9 0-1.4.1-.5.2-.7.4-1.1.4-.8 0-1.6-1.2-1.9-1.9-.3-.7-.5-1.8-1.3-1.8-1-.1-1.5 1.2-1.7 1.9-.3 1.2-.8 2.4-1 3.7s-.4 2.5-.7 3.8c-.6 2.3-1.4 4.5-1.9 6.8 0 .7.2 1.4.4 2v1.8c0 .5.5.9.5 1.5-.1.6-.2 1.1-.2 1.7.1.5.6.7.7 1.1.1.7.1 1.3 0 2 0 .6-.2 1.1-.7 1.5s-.8.3-.8 1.1c0 .4.3 1.3-.5 1.1.1.8 1.3 3.3.3 3.8-.2.1-.5-.1-.7.1s-.1.6-.1.8c0 .6-.1 1.2-.3 1.8-.2.5-.5 1.3-1.1 1-.4-.2-.6-1-1.1-1.1-.2 0-.2 0-.3.1l-.1-.3c-.3.2-.5.6-1 .5-.5 0-.4-.2-.7-.1s-.2.5-.5.6c-.5.3-.8-.2-1.1.5s0 1.7-.3 2.4c-.3.6-.8 1-1.3 1.3v.5c.1.5.5.7.7 1.2 0 .1.1.2.1.3v.1c0-.1 0-.2-.1-.3-.2-.5-.6-.7-.7-1.2v-.5h-.1c-1.3.5-2.7.8-4.1 1-2.6.6-5.2 1.1-7.8 1.7l-2.3.6v-.1l-5.9 1.3-6.9 1.5c-.9.2-1.9.4-2.8.6-.3.3-.6.4-.9.7-.3.3-.5.8-.9 1.1-1.2 1.2-2.6 2.3-3.7 3.6-.6.8-1.2 1.5-1.8 2.2-.6.5-1 1.1-1.3 1.9-.1.4-.1.7 0 1.1 0 1.1-.6 2.1-1.5 2.6-.7.5-1.3 1.1-1.9 1.7-.4.5-2.3 1.3-2.1 2.1s1.7 0 2-.3c.7-.6.8-1.3 1.9-1.1v.9c-.2 1.3-1.5 1.8-1 3.2.5 1.5 1 2.3-.4 3.2-1.1.5-2.1 1.4-2.8 2.4-.6 1.2-.9 2.2-2.4 2.1-.6-.1-1.2-.1-1.8-.1-.6.2-1.1.5-1.6.8-1.1.7-2.4 1-3.7.8-1.4-.4-2.2-.9-3.6-.3-.5.3-1.1.4-1.7.4s-1.2-.2-1.7-.2c-1.2.2-2.4.6-3.6 1.1-1.1.4-2.1 1-2.9 1.8.6.4.7.9 1.1 1.5s1 .7 1.3 1.2c.9 2.3.4 4.8-1.3 6.6-.6.6-1.2 1.3-1.8 2-.6.5-1.2 1.1-1.8 1.8-.4.6-.5 1.5-1.3 1.8-.2.1-.8.2-1 .2-.1 0-.3.1-.4.1-.4.1-.7.3-1 .5-.7.4-1.2.9-1.7 1.5-.5.8-.8 1.5-1.7 1.8-.6.2-1.2.2-1.8.4v.2c-.3 0-.6 0-.8.2-.1.1-.2.1-.2.2-.6.6-1.2 1.2-1.7 1.8-.6.6-1.5 1-2.1 1.6s-.8 1.4-1.4 1.8c-.7.4-1.7.5-2.2 1.4-.6.9-.6 2-1.4 2.8-.7.6-1.6.9-2.5.7s-1.8-.2-2.6 0c-.8.4-1 1.4-1.8 1.7-.8.4-1.6-.2-2.4-.2h-2.3c-.4 0-2.2.7-2.5.4-.5-.6 1.7-1.4 2-1.5-.9.1-2.9.4-3.3-.7-1 .3-1.4-.2-2.3-.4-.6-.2-1.5 0-1.9-.5-.1-.1-.1-.2-.1-.4-.3-1.5 1.9-2.5 2-4 .1-.8-.3-1.5-.3-2.3.1-.6.4-1.1.8-1.6.8-1.1 1.8-2.1 2.8-3 .6-.8 1.1-1.8 1.3-2.8.2-.4.3-.9.4-1.3 0-.4.1-.9.4-1.2l.9-.9c.3-.8.3-1.6-.1-2.4-.5-.6-.2-1.5-.6-2.3-.5-.8-1-1.2-1-2.2.1-.9 0-1.8-.3-2.6-.4-.8-1.2-1.3-1.5-2.1s-.1-1.8-.6-2.6c-.4-.6-1-1.1-1.7-1.4-1-.4-1.4.4-2.1.9-.7.3-1.6.4-2.4.3-.3.5.1 1.1-.4 1.4-.1.1-.4.1-.6.2-.2.2-.3.4-.3.6-.3.8-.7 2.8-1.5 3.2-1.1.6-2.2-1-2.7-1.8-.8-1.2-.2-2 .7-2.9.8-.9 1.3-1.9 1.7-3 .4-.9 1.3-1.5 1.7-2.4.5-1.3-.3-3-.5-4.3s0-2.4-.5-3.5c-.2-.4-2.1-2.7-2-2.9.1-.2 1.7.9 2.1.3s-1.8-2.7-2.2-3.1c-.9-1-2.1-1.8-3.4-2.2-1.1-.1-2.2-.3-3.3-.6-1.1-.5-1.8-.9-3-.5s-1.5 0-2.2-.9c-.8-.9-1.7-1.5-2.8-.4-.6.7-1.5 1.8-1.1 2.7.3.6 1.9 1.8 1.6 2.5s-2.5.5-3.1.9c-1 .7-.5 1.9-.4 2.9.1 1.1 0 2.1-.1 3.2.1.9 0 1.7-.2 2.6l-.6-1.2c-.2-.4-.5-1.2-1-.7-.3.4-.4 2.1-.8 2.3-.4.2-.1-1.5-.1-1.7.2-.6.4-1.2.7-1.8.2-.6.3-3.8-.6-3.6-.6.1-1 1.1-1.1 1.6-.1.7-.2 1.4-.5 2.1-.3.6-.8.5-1.3.8s-.7 1.1-.8 1.7c-.3 1.5-1.4 2.2-1.3 3.8.1 1.6 0 3.1-.3 4.7-.3 1.2-1.5 2.3-1.3 3.6.1.7.6 1.3.7 2 0 .6-.2 1.3-.5 1.8-.6 1.2-.4 2.7.5 3.6-.1.9.3 1.7 1 2.2 1 .7 1 1.4 1.3 2.5.1.7.4 1.4.7 2.1.5.8.9 1.1.6 2.1-.5 1.8-.1 3.7-.6 5.6-.6 1.7-1 3.5-1.4 5.3-.2 1.4-.8 2.7-1.7 3.8h.1c-.2.2-.6.3-.8.5-.4.4-.9.8-1.4 1.1-1.9 1.2-4.7 2.1-6.4.1-.1-.2-.3-.3-.4-.5 0-.1-.1-.1-.1-.2-.1-.1-.1-.2-.2-.4 0-.1-.1-.2-.1-.3s-.1-.2-.1-.3-.1-.2-.1-.4 0-.5-.1-.7l-.2-.6c-.5-1-1-1.9-1.5-2.9-.6-1.3-.9-2.8-.8-4.3h-.3V143c0-.5 0-1-.1-1.6-.2-2.7-2-4.9-1.9-7.7.2-1.2.5-2.4 1-3.5.3-1.1.5-2.3.5-3.4.1-2.6 1-5 1.3-7.6 0-1.4.2-2.7.5-4.1.5-1.1 1.1-2.2 1.8-3.1.8-1.3 1.2-2.7 1.3-4.2.1-.7.2-2.7-.6-2.4-.7.2-1.3 2.4-1.6 3-.6 1.1-1.2 2.2-2 3.2-1.5 1.9-2.7 4-4.1 6 0-.4.1-.8.2-1.2v-1.1c0-1.5.9-2.6 1.6-3.8.9-1.5.9-3.2 1.6-4.8.1-.2.1-.2.2-.3.8-1.3 1.3-2.7 1.5-4.1 0-.5 0-.9.2-1.3.3-.5.9-.7 1.1-1.2s0-2.2 1.2-1.9c.1 1.2.9.7 1.8.5 1.1-.2.9-1.5 1.3-2.4.2-.4.9-.8 1.2-.2.3.6-.4 1.2-.6 1.7-.2.4-.4 1.5 0 1.8s1-.4 1.2-.7.8-.8 1.1-1.2c.3-.5.6-1 1-1.5.8-.8 2-1.3 3.2-1.2.6 0 1.2-.1 1.7-.5.4-.4.8-.7 1.2-1 .4-.3.7-.9 1.2-1.1s1.3 0 1.9 0c.5 0 1.1.1 1.6.3.6.2 1.2.3 1.8.4.6.1 1.1.3 1.6.6s.6 1 1.2 1.2c1.8.3-.3-2.4 1.1-2.5.5.3.8 0 1.2-.3.6-.4 1-.2 1.7-.2 1.3-.1.8-1.5-.1-2.1-.5-.2-.9-.6-1.2-1-.2-.5-.3-1-.4-1.5-.8-1.9-4.6-1.1-6.2-1v-.1c-.5-.1-1-.4-1.4-.8-.3-.6 0-1.2 0-1.9 0-1.2-1.5-1.1-2.4-1s-1.7 1-2.9 1c-1-.1-2.1-.1-3.1-.1-1.1.2-1.6 1.3-2.5 1.9-.5.1-.8.6-1.2.8-.5.2-1 .5-1.4.9-.3.4-.8.7-1.4.8-.6.1-1.1 0-1.4.5-.1.4-.3 1.1-.8 1s-.6-1-.9-1.4c-.7-.8-2.3 0-2.7-1.1-.5.1-1-.5-1.4-.8s-.9-.6-1.5-.8c-.6-.1-1 .6-1.4-.2-.2-.3 0-.6-.5-.5s-.4.4-.6.5c.1.3-1 .4-1.3.3v-.2c.5-.2.5-.4.2-.7-.2-.3-.3-.6-.5-.8-.8-.7-1.1 1-1.7.6 0-.5.2-2.1-.5-2.2-.8-.1-.9 1-1.3 1.2-.2.4-.4.7-.7 1.1-.5.5-.9.4-1.1-.3-.2-.9 0-1.8.5-2.6.5-.6 1.2-1.1 1.9-1.4.5-.4 1-.9 1.3-1.5.4-.8.9-1.5 1.5-2.2.5-.5 1.5-.8 1.9-1.4.9-1.2-2.4-.6-2.9-.4-1.3.7-2.6 1.7-3.6 2.8-1.4 1.3-2.6 2.9-4.1 4.1-1.2.9-2.4 1.8-3.5 2.9-1.2 1.3-2.4 1.2-4.1 1.3-1.7.2-2.5 1.3-3.7 2.2-.9.6-1.9 1.1-2.9 1.5h-.1c-1 .4-1.2-.5-2-1-1.2-.7-1.1.9-2.1.8-.4.7-.5 1.1-1.4.8-.2-.1-.7-.2-.7-.6 0-.5.5-.2.8-.4.8-.5.1-1.2.1-1.9s.7-1.2.5-2c-1.5.1-3 .5-4.4 1.2-1.1.8-2.3 1.5-3.6 2-1.2.3-2.5.4-3.8.1h-1.1c-.1 0-.2.1-.3.1h-.1c-.2.1-.3.2-.4.4 0-.1.1-.2.1-.3.1-.1.2-.2.3-.2.1-.1.2-.1.4-.2h.1c.2 0 .3-.1.5-.1h.5c-.5-.2-.6-.7.4-1.6 2-1.9 4-3.9 6.1-5.7 1-.9 2-1.6 3-2.6s1.8-2.2 2.8-3.2c2.3-2.4 5.7-2.8 8.2-4.8 1.1-.9-.4-1.2-1.1-1.4-.7-.3-1.3-.9-2-.9-1-.1-1.1.3-2.2-.4s-1.3.1-2.3-.1c-.4-.1-.5-.5-1-.6-.4-.1-.3.1-.7.3-.8.6-.9.3-1.7.1s-1 .3-1.7.5c-.7.1-1.3-.3-1.8.3-.4.3-.5.8-.9 1.2-.7.6-.8.3-1.5 0-.6-.2-1.3-.2-1.9-.4-.5-.3-1-.6-1.5-1-1-.6-2.4-1.9-3.5-1.5-.6.2-.8.6-1.4 0-.4-.5-.4-1.2-.9-1.7s-.9-.4-1.6-.6-.8-.6-1.4-1-1.3-.1-1.9-.3c-.9-.3-1.5-.9-2.5-.8-.9.1-1.8.4-2.6.9-.4.2-.7.8-1.2.7-.2-.7-.7-1.3-1.4-1.6-.8-.4-1.4-1.4-2.3-1.5s-1.5.5-2.2-.2-1.8-.2-2.5-.4c-1-.2-.7-1.1-1.1-1.9-.5-1.1-1.5-.8-2.4-.4-.8.3-.9 1.3-1.6 1.7-1 .6-.8-.6-.9-1.2-.1-.9-.5-.8-1.3-.8h-16.9c-22.3 0-44-1-64.2-2.5v.1c-18.3-1.3-36.6-3.1-54.8-5.5h-.1l-13.5-1.8-2.1-.3c-3.8-.6-7.6-1.1-11.5-1.7-1.7-.3-3.3-.6-5-.8-2.9-.5-5.7-.9-8.6-1.4-4.5-.8-9-1.6-13.6-2.4-1-.2-1.9-.4-2.9-.5h-.2c-2.7-.5-5.3-1.1-7.9-1.6h-.2v-.2c-32.7-6.6-52-12.5-52-12.5-.5.7-.3.9 0 1.3s.4.5.2.8c-.3.4-.4.6-.1.9.7.6 1.5 1 2.3 1.1.1.2.5.5.5.7s-.4.6-.5.9c0 .3.2.3.4.7.1.3 0 .7 0 1-.8-.1-1.4-.6-2.3-.4-.8.1-1.5.6-2 1.3-.3.5-.3 1.7.2 2.1.7.5 1.1-.3 1.2-.9.1-.2.2-.8.5-.8.3-.1.3.2.3.5s-.2.7-.4.9-.6.5-.7.8c-.1.5 1 .6 1.3 1s.6 1.4-.2 1.3c-.6 0-.9-.8-1.2-1.2-.4-.4-.9-1-1.6-1.1 0 .2.5.7.6.9.2.2.5.6.8 1 .6.6.8 1.5.6 2.3-.3 0-.8-.6-1-.8l-.6-1.5c-.2.4-.2.6-.6.1s-.5-.7-.9-.6c-1 .1-.2 1.7-1 1.8-.4 0-.4-.6-.3-.8 0-.4 0-.7-.3-1-.7-.5-1.4-.7-2.2-.7-.7-.1-1.4-.4-2-.8-.7-.3-1.5-.6-2.2-.8-.8-.3-1.5-.8-2.1-1.5-.7-.6-1.4-1.2-2-1.8-.9-.8-1.5-1.9-2.5-2.7-.6-.5-1.9-.8-2.2.2-.2.6 0 1.4-.2 2-.2.6-.4 1.2-.5 1.8-.2.9-.3 1.9-.3 2.8.2.9.4 1.7.7 2.6.4 1.6.2 3.5.4 5.1.2 1.4.2 2.9.2 4.3-.1 1-.1 2-.1 2.9.1.7 0 1.5-.1 2.2-.2.5-.7.9-.9 1.4s-.3 1.1-.7 1.5c.2.9.1 1.4.8 2.1.7.7 1 .5 1.8.7s1 .7 1.5 1.2c.3.3.6.5.9.7.3.1.7.2.9.4.2 0 .3.1.4.2-.1-.1-.3-.1-.4-.2-.3-.2-.6-.3-.9-.3.3.2.5.4.7.7h-2.3c-.8 0-1.2-.5-1.9-.5-.9-.1-.8.8-1.1 1.4-.3.6-.8 1-1.1 1.6-.7 1.4-.7 3.4-.9 4.9-.3 1.4-.8 2.7-1.5 4-.6 1.5-.8 3.2-1.6 4.7-.7 1.2-1.3 2.4-1.7 3.7-.4 1.4-.4 2.9-1.2 4.1-.8 1.3-1.4 2.7-1.7 4.2-.5 1.3-1.1 2.6-1.8 3.7-.5 1.1-1.4 2-1.9 3-.4 1.1-.9 2.1-1.6 3.1-.8.9-1.4 1.9-2 2.9-.6.9-1.6 1.7-2 2.8-.4 1 0 2.7-.1 3.9-.3 1.4-.4 2.8-.3 4.3.1 1.1.5 2.2.7 3.3v.4h.1c0 1.1-.2 2.3-.2 3.5.1.7.2 1.5.1 2.2l-.6 1.5c-.4 1.1-.2 2.4-.8 3.5-.3.6-.6 1.2-.8 1.8-.1.6.1 1.1-.4 1.5s-1 .3-1 .9.8.7.5 1.3c-.4.8-2.2.5-2.9 1.3-.7 1-1.1 2.1-1.3 3.2-.1 1.1.8 2.2 1.2 3.2.5 1.3.5 2.7 1.2 3.9.7 1 1.1 2.2 1 3.4 0 1.3-.2 2.6-.4 3.9-.3 1.1-1.2 2.2-1 3.3.4 1.1.7 2.3.8 3.4 0 .8-.6 1.1-.8 1.8-.2.7.1 1 .3 1.5.7 1.4 1.4 2.9 2 4.4.3.7.7 1.5 1.2 2.1.5.7.7 1.5.6 2.4.1.8-.1 1.6-.6 2.2-.4.6-1.4 1-.4 1.6.8.4 1.2.4 1.8 1.2.2.3.4.8.7.9s.6-.4.9 0c.3.4 0 .8.2 1.1s.7.2.9.4c.4.5-.4 1.5-.5 2s.1.8-.2 1.2c-.3.3-.7.1-.8.6-.3.7.8 1.2.8 2 .1 1.9-1 3.1.3 4.9.3.6.8 1.2 1.3 1.8.7.4 1.3.9 1.9 1.4.6.5.8 1.3.7 2 0 .5-.1 1.9-.9 1.5-.1-.4-.3-1.2-.9-1 0 .9-.1 1.9-.4 2.8-.3.9-.8 1.5-.5 2.5.5 1.9 1.7 3.1 2.5 4.8.4.6.7 1.4.8 2.2-.1 1-.7 1.5.3 2.2s.8.7 1.1 1.7c.2.8 1 .8 1.2 1.6.1.4.1.8.5 1.1s.7.2.9.5c.7.6 1.6 2.9 1.1 3.8-.1.2-.3.2-.4.3-.1.2-.1.3-.1.5-.2.4-.3.7-.5 1.1.3-.3.6-1.1 1.1-1v.4c.4 0 .9.2 1.1.5.6.9-.4 1.8-.5 2.8.1.5.1 1 0 1.4-.2.4-.3.8-.5 1.2-.1.5 0 1-.2 1.4s-.8.5-1 .9c-.5.9 1 1.5 1.6 1.9.8.7 1.7 1.1 2.7 1.3 1 0 2 .2 3 .5.9.5 1.2 1.4 2.4 1.4 1 .1 2 .4 3 .7 1.3.4 1.4 1.2 2.2 2.2.3.4.7.7 1 1.1.3.4.5 1.1.8 1.6.5.8 1.7 1.2 2.5 1.6 1 .5 1.9 0 2.8.7s1.7 1.4 1.6 2.4c-.1 1.1-.2 2.3 1.1 2.3 1 0 1.7-1.1 2.3.1.5.9.6 1.7 1.5 2.5s1.8 1.2 2.4 2.1c.8 1.2 1.4 2.5 1.9 3.8.6 2.5.7 5.1.4 7.7.6-.2.6-.8 1.3-.8s1.3.4.8 1.1c-.6.6-1.2.2-1.5.9-.1.5-.1.9.1 1.4.2.6.2.5.7.4.3 0 .6 0 .8.1.8.1 1.7.2 2.6.2 2.4.2 4.9.5 7.3.6 2.7.2 5.5.5 8.2.8 2.2.2 4.5.4 6.7.6l2.2.5.1-.1h.1l-1.9 3.7 41 23 22.5 2.7v.1l9.5.9.4-7v-.1l20.6 2.2v-.1l1 .5c.1.3.2.5.3.8.3.5.7.9 1.2 1.1.6.4.4.9.7 1.4.5 1 1.8 1.3 1.9 2.4 0 .5.3 1 .8 1.1.6.3 1.1.8 1.6 1.3.7.8 1.3 1.6 1.8 2.5.3.4.7.7 1.1.9.5.3.9.8 1 1.4 0 .5.2 1 .6 1.4.4.3 1.1.6 1.4 1 .3.4.4 1 .8 1.5.3.4.9.4 1.4.3.9-.2.9.7 1.3 1.1.4.4.9.4 1.1.9.2.4 0 1.3 0 1.9-.1.7 0 1.3.1 1.9.4 1.2 1.4 2.2 1.8 3.5.3 1.5.8 2.9 1.3 4.3.6 1.1 1.4 2.2 2.1 3.3.8 1.1 1.8 2.2 2.9 3.1.6.5 1.2 1 1.8 1.4.7.3 1.4.6 2.1.8.7.3 1.4.7 2 1.2.5.5.9 1 1.5 1.5 1.3 1.1 3 1.5 4.6 1.1 1.4-.5 1.5-2.3 2.3-3.4.5-.6 1-1.1 1.5-1.7.4-.6.8-1.2 1-1.9.4-1.4 1.2-2.5 2.4-3.3 1.1-.7 2.3-1.2 3.6-1.3.1-.1.2-.2.4-.2.3.1.4.6.8.7.4.1.8-.1 1.2-.1.4.1.8.1 1.2.1s.7-.3 1-.1.5.5.8.6.7.1 1.1-.1c.4-.1.9-.4 1.3-.2.4.1.5.4.8.5s.7 0 1 .2.5.4.7.7c.5.7.4 1.7 1.4 1.8.8 0 1.6.4 2 1.1.4.6.8 1.2 1.4 1.6.3.1.6.4.8.6.2.3.1.7.3 1 .2.4.5.8 1 1 .4.2.8.2 1.1.5.3.3.3.9.3 1.3s.8.5.9 1.1c0 .2.1.5.3.7.1.2.2.4.2.7 0 .6.2 1.1.4 1.6.3.8 1 1.3 1.5 2 .3.5.5 1 .6 1.6.2.6.4 1.2.6 1.7.2.7.7.9 1 1.5.1.2.2.5.2.8.1.4.5.6.7.9.4.5 1.1.7 1.5 1.3.4.6 0 .9.6 1.4.2.1.4.2.6.4.1.2.2.5.3.7.2.5.7.8.9 1.3l.6 1.5c.2.7.5.8 1 1.2.5.3 1 .6 1.4 1 .3.5.6.9.9 1.5.3.4.6.9.8 1.4.1.5.2 1.1.2 1.7 0 .4-.1.8 0 1.2.1.2.1.5.2.8 0 .7-.6 1 0 1.6.4.3.1.7.4 1.1s.6.5.9.9c.2.4.3.8.3 1.2.1.5.4.6.8.8.8.6 1.1 1.5 1 2.5 0 .4-.2.7-.2 1.1s.1.9.4 1.2c0-.1.1-.1.2-.2.3.1.7.2 1 .4.3.2.5.5.8.7s.7.4 1 .6.4.4.7.6c.7.5 1.7.7 2.2 1.3.2.3.4.5.8.4.3-.1.6-.2.9-.4.4-.2.5-.4.9-.4.4-.1.8-.1 1.2 0 .3 0 .6.2.8.4.2.2.3.4.6.6.3.1.4.1.6.5.1.3.2.5.4.8.5.3 1.1.4 1.7.5h.9c.3.1.4.3.7.4 1 .4 2-.5 2.8.4.5.6 1.1.6 1.8.8.3.1.5.2.8.4.2.2.4.5.7.6.3.1.5-.1.7-.2s.5.2.7.1c.3-.3.5-.6.6-1 0-.4-.1-.8-.3-1.1-.3-.7-.6-1.4-1-2s-.9-.9-1.3-1.5c-.6-.8-.2-1.1 0-2 .5-1.6.4-3.3-.1-4.9-.2-.6-2-4.1 0-3.6.6 2.6.4 5.3 1.2 7.8.2.7 1.9 5.4 2.8 4.7 1.2-.9-1.4-6-1.7-7.2-1.2-5.4 1-10 2.5-15-1.9-.1-1.8.9-2.4 2.4-.2 1-.6 2.1-1.1 3-.3.3-1 2-1.6 1.2-.2-.3 0-.7.1-1 .2-.5.3-1 .5-1.5.3-1.4 1.5-2.6 1.1-4-.1-.5-.4-1-.9-1.4-.5-.3-.8-.3-.7-1 .2-1.2 1.2-1.8 1.8-2.8.2-.5.6-1 1-1.4.6-.4 1-.2.8.5.5.1.9 0 1.2-.4.2-.2.4-.5.5-.7s.5-.4.7-.6c-.5.6.2.9 0 1.6-.3.7-.7 1.2-1.4 1.5-.3.1-.7.1-1 0-.4-.1-.8 0-1.1.2v1.3c0 .4.2 1 .6.5.2-.4.2-.8.7-.9 1.1-.4-.2 2.1-.1 2.1 1.7.3 2.9-2.1 4.3-2.9 1-.6 4.3-2.2 4-3.6-.2-.1-.4-.1-.6 0s-.3.3-.4.5c-.4-.3-1.5-.6-1.5-1.3 0-.9 1.4-1.2 1.9-1.8.9-1-.4-.6-.4-1.8 0-1 1-1.7 1.4-.5 1.2.1 1-1.6 2.1-1.4.1 1.1-.2 2.2 1.2 1.5.8-.4 2-1.9 3-1.2-.3.6-.8 1.1-1.4 1.6-.6.4-2 .5-2.4 1.2-1 1.6 2.2-.2 2.7-.3.7-.2 1.6.1 2.3-.2.7-.4.8-1 1.2-1.4.9-.8 1.9-1.6 3-2.2 1.2-.7 2.8-.9 3-2.6-.3 0-.6-.1-.9 0-.1-1 1.7-3.2 2.8-2.9-.2.6-1.1 1.9 0 1.7.4-.1 1-1.1 1.3-1.4.9-1.1 1.3-1.7.3-2.8-.5-.6-.8-.6-.9-1.5-.1-.8.4-1.1-.4-1.8-.6-.5-1.2-.4-1.2-1.4 0-.6.4-1.2 1-1.1 1.2.3 1.1 3.5 1.9.8 1.5-.1 2 0 1.5 1.5s-.2 1.6 1.4 1.7c.1.6 0 1.2-.5 1.6 1.3.1 2.2-1.3 3.3-1.7 1.5-.6 3-1.1 4.6-1.7.8-.3 1.6-.5 2.5-.7 0-.1.1-.1.1-.2.1-.1.1-.2.2-.3.8-.1 1.5-.2 2.3-.3.6-.1 1.2-.2 1.9-.3 1-.1 3.1-1 4-.6.5.2.8.9 1.4 1.1.6.3 1.2.4 1.9.5 1.3.3 2.6.3 3.9.2.7-.2 1.5-.2 2.2 0 .9.4 1.1.7 2 .4.5-.1.9-.6 1.4-.7.8-.1.8.4 1.4.6 1.2.4 2.4-.7 3.6-.2-.1.3-.2.7-.1 1 1.7.1 3.6.3 4.7 1.4-1 .9-2.4 1.3-.8 2.3 1 .5 2 .8 3.1.8.9.2 1.7.5 2.5.9 1.8.9 1-.4 2.1-1.1.7-.4 2 .2 2.7.1.3-.1 1.5-.6 1.7-.4.4.3-.2.7 0 1.1.7 1.3 1.3-.7 1.8-1s.8.1 1.3-.5c.3-.4.4-.9.4-1.4.1-.7.3-2.7 1.2-2.8 1.2-.2.6 1.7.7 2.3 1.2-.1 1.9-1.1 2.9-.4.8.4 1.3 2 2.2 2.1 1.7.3.3-1.1-.2-1.5-.7-.7-1.5-1.3-2.3-1.9-.2-.9.5-1.2.9-1.8.5-.8.6-1.4 1.5-2.7.6-.5 2.1-1.2 1.5-2.1-.4-.6-1.9-.4-2.4-1.1.4-.4.7-.8.8-1.3v-.2c-.1-.6-.8-1.1-.7-1.7.1-.7 2.1-1.6 2.8-1.9 1.1-.4 2.2-.2 3.2-.8.2-.1.4-.2.5-.4v-.1h.1v.1c.4.3.7.8 1.2.9.1 0 .2.1.3.1h.4s.1 0 .1-.1l.1-.1.1-.1s0-.1.1-.1c0 0 0-.1.1-.1 0 0 0-.1.1-.1v-.1-.2-.1-.2c.9.4 1 1.1 1.6 1.4h.1c.1 0 .2 0 .3.1h.7c.3-.5.3-1.4.9-1.7.5-.2 1.1.5 1.6.6-.1-1 1-1.9 1.3-2.9.2-.7.1-2.9 1.4-2.6-.6 1.7.4 1.4 1.2 2.6.7.9-.1 2.1-.3 3.2.9 0 1.8-.2 2.6-.5.3-.1.7-.4 1.1-.3s.2.7.5.9c.1 0 .2.1.3.1v-.1c.7 0 1.3-.9 1.9-1.3.8-.6 1.8-.9 2.7-.6-1 1.7 3.1.5 3.3-.3-.4.1-.9.2-1.3.1.7-1.3 1.7-2.3 2.9-3 1.3-.5 3.1.1 4.3.6-.4-.1-1.1 0-1 .5 0 .7.8.2 1.2.2 1-.2 2-.3 3-.3.9 0 1.8.4 2.5 1 .6.4 1.7 2 2.2 2 .2-1-.6-1.9-.3-2.9.6 1 2.6 2 2.4 3.3-.3 0-.4.2-.6.2.5.7 1.1 1.2 1.8 1.6.6.3 1.8.2 2.1.9.3.7-.2 1.7.1 2.4.5 0 .8-.4 1.1-.8 1 .5 2.2-1.9 3.5-1 .8.5 0 1.5 1.1 1.4.8 0 1.1-.9 1-1.6 1.5.7 1.5.3 1.9-1 .5-1.3 1.2-1.2 2.5-1.3 0-.6-.6-.5-.7-1 0-.2.6-.8.7-.9.5-.5 1.6-.7 2-1.2 2.3.9 4.4 2.3 6.6 3.4 1.1.5 2 1.2 2.7 2.1.6.8.6 1.6 1.4 2.2.4.3.8.2 1.1.6.3.4.3 1.1.7 1.5.9.9 2.1.2 3.2.6 1.4.6 2.4 2.8 3.4 4 1.2 1.4 1.1 2.9.9 4.7-.2 1.8-2 3.4-1.1 5.4.4.6.5 1.4.3 2.1-.3.7-.2 1.6.1 2.3.2.3.9 1.4 1.3 1.5 1.1.3.8-.8.8-1.6 1.1.2.8-1.5 2.1-1.2.2 1.5 0 2.9-.6 4.3-.7 1.4-.8 2 .5 3.1 1.1.9 1 1.7 1.8 2.8 1.2 1.7 1.8 5.9 4.7 4.9-.7-1.3-.1-3.7.7-1.4.3.9.1 4.1 1.6 4 .1-.4.3-1.6 1-1.3.7.2.2 1.3.1 1.8-.1.3-.1.5-.2.8.1.4.4.4.5.7.1.6 0 1.2.2 1.8.6 1.9 2.3 3.2 3.5 4.8s2.6 1.5 4.7 1.5c1.6-.2 3.1.6 3.8 2 1.3 1.8 1.6 2.4 3.7 1.6 2.8-1.1 2.2 1.5.2 2.2-1 .3-4.7-.1-4.6 1.6 0 1.7 3.4 1 4.2.6 1.7-.7 3.4-.9 5.1-1.5 3.5-1.2 1.8-8.3 2.8-11.2.5.6.8 2.9 1.2 1.1.1-1.3-.1-2.6-.5-3.9.3-1 .2-2.2.2-3.4-.1-1.2-.4-2.4-.8-3.6-.5-2.2-1.5-4.5-2.2-6.6-.7-2.2-1.4-4.7-2.6-6.5-.7-1-1.6-1.9-2.5-2.7-.8-.7-2.1-1-2.1-2.3 1.1.8 2.2 2.8 3.4 3.2 1.4.5.3-1 0-1.7-.4-1.1-.3-1.8-1.1-2.7-1.5-1.5-2.1-3.7-3-5.5-.9-1.6-2.1-3.1-3.4-4.4-.8-.8-1.7-1.1-2.4-2.1-.7-.7-1.3-1.6-1.8-2.5.9 0 3.1 1.1 2.9-.5-.1-1.1-1.8-1.5-2.5-2.1-1.3-1-3.5-2.4-4.2-3.9-.3-1-.6-2.1-.9-3.2-.3-1-.5-2.1-.9-3.1-.5-2-1.2-4-2.1-6-.1-.3-.3-.6-.5-.8-.2-.3-.5-.7-.7-1l.1-.1c-.1-.1-.1-.3-.2-.5-.3-1.1-.2-2.3.3-3.3-.4 0-.9 0-1.3-.2-.8-.5-.3-.5.1-.9.6-.7 1.3-.9 1.4-1.9s-.8-1.1-.9-1.9.8-1.3 1.4-1.5c0-.5-.4-.8-.4-1.3.8-.6 1.3-1.6 1-2.6-.3-.5-.9-.4-.5-1.2.4-.8.9-.3 1.5-.4.8-.1 1-.1 1.4-.7.1-.2 0-.5.2-.7s.5-.2.7-.4l.1-.1c.3-.5.9-.8 1.1-1.3s-.1-1.3.5-1.5c.2-1-1.7-2.1-.7-2.8.1.8 1.4 1.7 1.9.9.5-.8-1-1.3-.6-2.1.3-.8 1.4-.4 1.9-.8.6-.5.7-1.5.9-2.1 0 .3 0 .6.1.9 1.3 0 2.7-1 2.7-2.1-.1-.7-.6-1.2.4-1.5.7-.2 1.2.4 1.6.9 1.5-.7 1.7-2 2-3.2.5-1.8 1.4-1.3 2.9-1.4-.2-1.1-1.5-3.3 0-4 .3.4.5.8.6 1.2 1.6-.6 2-3 2.6-4.2s1-2.4 1.6-3.7c.6-1.2 1.5-2.1 2.5-3 .7-.6 1.4-1.1 2.2-1.5.3-.1.5-.3.8-.4.6-.2 1.1-.7 1.4-1.3.3-.6.1-1.3.9-1.5.1 1.1-.2 2.1-.1 3.2.7-1 1.3-2 1.9-3 1-2 1.6-4.4 3.2-6.1.7-.7 1.5-1.3 2.3-1.8.5-.4 1.4-.7 2-1.1 1.1.3 2.7-.3 3.7-.5 1.5-.3 2.5-.4 3.4-1.8.7-1.2 2.1-2.7 2.2-4.3s-1-1.9-2.4-1.9c-.7.1-2.6 1-3.2.6-1.1-.7.4-1.2.6-1.9.2-.7-.5-1.4-.9-1.9.6-.3.1-1.3 1-1.3s.5 1.4 1.4 1.3c0-.3-.2-1.1.2-1.3.6-.3.5.7.5 1 2.1.2 2.2-2.8 3.4-3.8 1-.8 1.1-1 1.1-2.4.1-.9-.1-1.8-.5-3-.9-1.4-3.5-.7-4.8-.2-.9.3-1.9.6-2.8.7-1 .2-2-.3-2.9.1-.6.2-1.9 1.8-2.5.7-.2-.6.6-1.8.5-2.5h.2c-.3-.4-.3-.8-.1-1.2 1.1.2.7 1.2 1.2 1.7s1.3.3 2 .2c2.9-.5-.6-1.6.1-2.8.7.2 1.3.4 1.8.8s.7.9 1.6.5c0-.5-.1-2.4.8-2.4 0 0 1.2 1.3 1.3.9.3-1 2.2.4 3 .3-.2-.5-.6-.8-.8-1.4-.2-.6 0-2.1-.9-2 0 .6-.1 1.1-.2 1.7-1.2-.5-1.2-1.4-1.1-2.5h-.2v-.3h.2c-.2-1-.9-1.9-1.4-3.3-.2-.4-.8-.4-1-.8-.2-.4-.1-.9-.2-1.3-.2-.9-1-1.6-2-1.7-.4.1-.5.4-1 .4s-.9-.6-1.7-.6c.1-1.2-1.1-2.4-1.8-3.1-.6-.7-2.4-1.5-1.4-2.7s2 1.8 2.3-.2c.4-2-1.4-1.1-2.2-1.5-.9-.4-1.7-2.9-.1-2.6.3-1.3 2-2.2.3-3.5-1.2-.6-2.4-1.1-3.6-1.4-1.4-.5-2.5 0-3.9-.2-1.2-.2-1.7 1.1-2.3.1l-.8.1c-.2 0-.9-.8-1.1-.8-.3 0 .2-1.3 0-1.5l-.1-.1v-.1c-.1 0-.1-.1-.1-.2v-.2c.1-.6.5-1.2.9-1.6l.1-.1.2-.2c.2-.1.3-.4.3-.6l-.2-1v-.5V181c0-.1.1-.1.1-.2.1-.2.2-.3.2-.5l.2-.3c.1 0 .1 0 .2.1l.3.3v.1l.1.1c.1.1.1.2.2.3.1.1.1.2.1.3.1.2-.1.4-.2.6-.1.1-.1.1-.1.2v1l.2 1c0 .2-.1.5-.3.6l-.2.2-.1.1c-.4.5-.7 1-.9 1.6v.2c0 .1.1.1.1.2v.1c-.1 0-.1 0-.2-.1.1.1.1.1.2.1l.1.1c.3.1.5.2.8.2h.6c-.1-.3-.2-.7-.1-1.1 1 .6 2-.2 3 .1.6.2.6.4 1.1.3.5-.2.8-.9 1.5-.7 1.2.4.8 2.2 2.4 2.1 1.6-.1 1-1.2.5-2.1-1-1.8-1.9-3.8-2.9-5.6-.5-1.1-.2-3.1 1.5-2.7 1 .3 1.4 1.8 1.5 2.7 0 .6 0 1.3.2 1.7.3.4.7.3 1.1.7.4.4.4.7.6 1.3.3.6.4 1.2 1.1 1.4 2.2.8.2-2.5 2.4-1.7.6.2.5.3.6.8 0 .3.4.9.3 1.3-.1.4-.7.3-.5.9h.7c.1.5-.3.8-.2 1.3.4 0 .8.2.9.6 0 .1-.1.4-.1.6s.2.3.2.6h.4c.1-.3.5-.4.8-.4 0 .2-.2.5-.1.7.3 0 1.2-.5 1.4 0s-.7.6-.9.8-.1.4-.3.5c-.1.1-.4 0-.5.1s0 .4-.2.5-.4-.1-.5 0c-.8.2-.1.2-.1.7 0 .6-.5.1-.6.7-.1.3.3.7.4 1 .2.6-.1.3-.4.7-.3.5.1.4.3.8.2.4 0 .8-.5.5.4.7.7 1.4.9 2.2 0 .7-.3 1.9.5 2.1.8.2 1.1-1 1.3-1.6.2-.4.3-.8.3-1.2-.1-.4-.4-.8-.5-1.2-.2-.9.4-1.4 1.2-.9.2-.8-1.7-1.7-.3-2.2.7-.3 1.3-.9 1.6-1.7.3-1-.4-1.6.4-2.6.5-.7 1.5-1 1.3-1.9-.1-.4-.5-.7-.8-.4s-.2.9-.5 1.3c-.3-.1-.4-.5-.8-.8-.4-.3-.7-.6-.6-1 .1-.4.4-1.2.9-.9.4.2.1.7.3 1 .3 0 .4-.3.5-.5.1-.3.3-.5.5-.7l.3-.6c.1-.3.1-.6.4-.7.1.1.2.1.2.2.6.1.6-.3.6-.6 0-.4.1-.7.3-1 .8-1.7-1.1-3.8-2-5.5l-.2-.6c-.5-.7-.3-.8-1.1-1.3-1-.6-1.8-1.4-2.4-2.3-.5-1-.4-2.2-1.1-3.1-.4-.4-2.1-1.5-1.5-2.3 0-.1.1-.1.2-.1h.2s.1 0 .1.1h.1c.1 0 .1.1.2.1.3.3.6.7.8.9l.2.2c.8.5 1.6.2 2.3 1 .2.3.4.7.8.7s.8-.6 1.1-.8c1.9-1.5.7 3.4 1.3 4.1.8.9 1.2-1.1 1.3-1.6.2-.9.6-1.7 1.1-2.4.6-.8 1-1.7 1-2.7-.1-1.2.1-2.3.6-3.4.5-.7.9-1.6.9-2.6s-.1-2.1-.3-3.1c-.4-1.1-.3-2.2.2-3.5.5-1.2.2-1.9-1-2.6-1-.5-1.4-.9-.9-2 0-.1.1-.2.2-.3l.1-.1.1-.1s.1 0 .1-.1l.1-.1H547.6c.1 0 .2 0 .2.1v.2c.1.1.3.2.4.3 0-.6 0-2 1-1.9.1.4 0 1.3.6 1s.1-.9.4-1.3c.3-.3.7-.2 1-.4.3-.1.8-.4 1.1-.6.4-.1.8-.3 1.2-.5.6-.5 1.2-.8 1.9-1.2.6-.3 1.1-.6 1.6-1 1.1-.8 2.5-.4 3.6-1.1.5-.4 1.1-.7 1.6-.9.7-.2 1.3-.5 1.9-.9.6-.6 1-1.6 1.6-2.2.6-.6 1.6-1.1 2-2.1-.8 0-1.6.4-2.1 1-.6.6-1.1 1.3-1.9 1.5-.7.2-1.3.6-1.7 1.3s-1.1 1.1-1.9 1.1c0-.8 1.2-1.6 1.7-2.1s1.9-1.5 1.7-2.5c-.5-.3-1.1.7-1.4 1-.5.4-1 .8-1.5 1.1-.4.3-.8.6-1.3.8-.5.1-1 .3-1.4.4-.6.1-1.1.2-1.6.6-.4.3-.8.7-1.2 1.1-.9.8-1.9.1-2.8.5-.9.4-.9 2.2-2.4 1.7.2-.6.4-1.2.7-1.8 0-.2.1-.4.3-.6.3-.2.5-.4.8-.4.5-.1.9-.3 1.3-.6.4-.4.3-1 .7-1.3.4-.4 1-.3 1.4-.7s.5-.8 1.2-.9c1-.2 1.9-1 2.9-1.3.9-.3 1.8-.5 2.8-.7.3 0 .7.1 1-.1s.4-.5.6-.7c.2-.2.5-.3.8-.4.3-.1.3-.3.5-.4.7-.6 2.2-1 2.9-.3 0 0 .1.1.2.1.2.1.3.1.4.3.2.2.5.2.6-.2s-.4-.5-.5-.7-.1-.5 0-.7c.4-.1.7-.3 1-.6.2-.2.5-.4.8-.5.4-.1.8 0 1.1-.2.8-.3-.2-1.5-.2-2.2s1-1.8 1.8-1.1c.5.4.5 1.7 1.4 1.6.5-.1.7-.6.8-1.2l-.1-.1c.1-.3.1-.6.2-.9.2-.8 1-1.4 1.5-2 .7-1 .8-.7 1.3.3.3.8.8 1.8 1.8 1.3.8-.4 1.3-1.1 1.5-1.9.2-1-.5-1.2-1.4-1.4-.8-.4-.9-1.2-1.5-1.8-.6-.6-1.4-.6-1.9-1.3-.4-.7-.5-1.8-1.2-2.3s-2-.3-2.5-.8c-.5-.6.1-1.8.2-2.4.3-1.1.8-1.1 1.7-1.8s0-.8-.7-1.1c-.9-.3-1.1-1.1-1.2-2 0-.6.1-1.1.2-1.6-.1.4-.1 0-.1 0 .1-.3.2-.6.2-1 .1-.7.1-1.5.1-2.2v-.1h-.1c.1-.5.1-1 .1-1.6-.2-1.2.5-1.1 1.1-2 .4-.7.5-1.5.9-2.2s1-1.4 1.6-1.9c.8-.8.1-1.8.5-2.8.3.2.9.9 1.3.5.2-.2.2-1 .1-1.2-.1-.2-.6-.7-.3-1.2s.7-.3 1.1-.2c-.1.3-.3 1.1.1 1.3.6.3.6-.7.6-1 0-.5.1-.9.3-1.3.1-.3.1-1.3.6-1.2.5.1.2 1.2.1 1.6-.1.4-.2 1.5.4 1.5.6 0 .5-1.1.5-1.4 0-.5-.1-1.7.5-1.9s.7.6.8 1c.6 3.7 3.2-2.1 1.1-2.3-.4 0-.9.3-1.1-.2-.2-.5.4-.5.7-.8.7-.5 0-1.8-.3-2.4-.1-.3-.4-1 .1-1.2s.3.8.6 1c.5.5.7-.4.6-.8-.1-.4-.6-.8-.4-1.4.5-1.1 1.6.1 1.8.7s-.4.6-.4 1.1.7.2 1 .1c.8-.1 2.7 1.4 2-.4-.3-.7-.5-2.2.5-2.4 1.2-.3.8 1.2.9 1.7.3 1 1.5.3 1.4-.6-.1-.5-.6-.6-.7-1-.1-.4.2-.6.6-.4.4.2.3.9.8.9s.6-.5.5-.8c0-.4-.3-2.5.6-1.6.5.5 0 1.9 1.1 1.9-.1-.9-.1-1.8 0-2.7.2-.7.6-.9.9-.2.2.5.2.8.7.8.4-.1.8-.2 1.1-.5.6-.6.4-1.7.8-2.4.3-.5.6-.8.9-.2.3.6.2.9.8.8.2-.7-.1-1.1 0-1.7s.6-1 1-1.4c.6-.4 2.5-2.6 1.3-2.9z" opacity=".65" fill="url(#SVGID_1_)"/></g><g id="opin_bottom"><path id="Opin_Bottom_1_" class="st6" d="M284.5 240.1c6.6 6.8 15.4 10.1 24.2 10 8.4-.1 16.7-3.3 23.1-9.7 1.8-1.8 1.8-4.6 0-6.4-.9-.9-2-1.3-3.2-1.3s-2.3.4-3.2 1.3c-9.6 9.5-25.1 9.4-34.5-.2-1.8-1.8-4.6-1.8-6.4 0-1.7 1.7-1.7 4.5 0 6.3"/></g><g id="opin_middle"><path id="Opin_Middle_1_" class="st6" d="M308.3 172.7c-5.9 0-10.9 2.2-15.1 6.4-4.1 4.2-6.2 9.3-6.1 15.2 0 5.9 2.2 11 6.3 15.1 4.2 4.2 9.2 6.2 15.2 6.2 5.9 0 10.9-2.2 15.1-6.4 4.1-4.2 6.2-9.3 6.1-15.2 0-5.9-2.2-11-6.3-15.1-4.2-4.2-9.3-6.3-15.2-6.2m30.1 21.2c.1 8.3-2.8 15.4-8.6 21.3s-12.8 8.9-21.1 8.9c-8.3.1-15.3-2.8-21.2-8.7-5.9-5.8-8.8-12.9-8.9-21.2s2.8-15.4 8.6-21.3 12.8-8.9 21.1-8.9c8.3-.1 15.3 2.8 21.2 8.6 5.9 6 8.8 13 8.9 21.3"/></g><g id="opin_top"><path id="Opin_Top_1_" class="st6" d="M284.5 148.2c-1.7 1.8-1.7 4.7 0 6.4 1.8 1.8 4.6 1.7 6.4 0 9.4-9.6 24.9-9.7 34.5-.2.9.9 2 1.3 3.2 1.3s2.3-.5 3.2-1.3c1.8-1.8 1.7-4.7 0-6.4-6.4-6.4-14.7-9.6-23.1-9.7-8.8-.1-17.6 3.2-24.2 9.9"/></g></svg>